<svg width="234" height="232" viewBox="0 0 234 232" fill="none" xmlns="http://www.w3.org/2000/svg">
<rect x="22" y="20" width="212" height="212" rx="106" fill="#6537B1"/>
<rect x="1" y="1" width="210" height="210" rx="105" fill="#F9C724"/>
<rect x="1" y="1" width="210" height="210" rx="105" stroke="#20112C" stroke-width="2"/>
<path d="M73.5597 125.497C73.5597 125.497 92.9616 144.329 115.217 135.769C137.472 127.209 138.042 100.96 138.042 100.96" stroke="#20112C" stroke-width="4"/>
<path d="M77.5542 114.085C77.5542 114.085 76.6722 120.095 74.1303 122.644C71.4417 125.341 65 126.068 65 126.068" stroke="#20112C" stroke-width="4"/>
<path d="M146.546 96.545C146.546 96.545 141.058 99.7558 137.387 99.4168C133.503 99.0583 128.912 94.4756 128.912 94.4756" stroke="#20112C" stroke-width="4"/>
<ellipse cx="88.3966" cy="96.9652" rx="5.1358" ry="17.1193" transform="rotate(-15.4224 88.3966 96.9652)" fill="#20112C"/>
<ellipse cx="110.18" cy="91.8686" rx="5.1358" ry="17.1193" transform="rotate(-15.4224 110.18 91.8686)" fill="#20112C"/>
</svg>
