<svg width="476" height="478" viewBox="0 0 476 478" fill="none" xmlns="http://www.w3.org/2000/svg">
<g clip-path="url(#clip0_3_4)">
<path d="M347.111 33.4401C327.574 35.7082 320.959 57.4176 312.873 72.22C299.01 99.0097 272.184 115.814 255.461 140.598C245.859 151.953 232.044 160.064 226.933 174.815C217.586 191.21 206.853 207.635 194.428 221.438C181.161 225.586 165.354 234.432 152.348 224.652C128.892 213.236 107.153 198.721 84.4236 186.072C68.2409 177.469 48.5514 180.732 33.9418 190.967C22.19 196.448 6.34318 199.891 2.53309 214.354C-2.24218 228.174 9.24127 242.463 23.3208 243.338C39.7501 245.621 56.0478 248.908 72.5336 250.453C95.6605 255.865 112.467 273.599 129.195 289.135C104.037 304.767 85.3709 328.287 61.939 345.998C48.9564 355.463 26.3328 357.393 23.427 376.373C22.1025 388.774 33.0914 397.444 43.7749 400.72C48.7635 404.49 55.0994 406.139 61.2928 406.231C49.186 410.187 31.9812 414.76 31.8318 430.454C31.1351 441.257 39.8218 450.74 49.7864 453.079C54.6577 461.591 65.5041 461.76 72.9674 465.469C81.9197 474.939 96.1205 469.541 106.094 476.116C117.292 478.479 127.786 470.848 139.214 472.037C152.44 472.206 165.472 469.753 177.697 464.91C189.107 463.576 195.871 452.934 206.564 449.783C213.087 445.793 218.811 441.308 226.296 439.444C233.735 436.247 241.73 433.544 247.839 427.646C259.799 418.881 273.613 411.955 282.358 399.461C288.57 394.525 297.433 383.808 304.896 391.86C319.08 400.873 327.685 419.034 345.087 422.395C352.518 423.968 357.723 417.773 363.661 415.224C372.235 416.133 378.029 409.656 384.227 405.218C393.201 402.67 395.564 392.068 404.578 389.629C413.316 384.476 413.106 373.77 418.472 366.347C422.862 355.864 419.621 344.249 413.848 335.139C411.318 323.593 414.794 308.066 401.869 301.59C398.84 297.38 395.396 291.889 391.496 289.368C399.738 278.853 405.986 267.107 413.181 255.984C417.481 248.87 418.993 240.472 421.621 232.938C423.931 227.994 424.851 222.885 429.787 219.724C436.472 212.786 432.514 202.355 438.289 194.938C441.393 185.557 437.692 175.682 438.029 166.064C436.491 159.946 439.993 153.192 436.439 147.151C437.877 136.857 436.306 124.965 427.827 118.297C427.295 107.335 416.494 99.1584 406.113 99.0513C409.65 90.0199 409.158 78.9237 402.899 71.2572C404.302 60.5736 397.153 50.3682 387.341 47.2222C381.917 37.9109 369.693 31.7041 359.411 37.0844C355.807 34.6677 351.476 33.2561 347.111 33.4401ZM433.841 157.309C433.534 157.005 434.146 157.673 433.841 157.309V157.309ZM373.789 305.025C372.839 305.21 374.739 304.761 373.789 305.025V305.025ZM396.947 392.54C396.661 392.571 397.073 392.514 396.947 392.54V392.54ZM395.648 394.657C395.042 396.258 396.151 392.93 395.648 394.657V394.657ZM253.298 422.512C252.766 422.638 253.784 422.374 253.298 422.512V422.512Z" fill="#F9C724" stroke="#20112C" stroke-width="4.65834"/>
</g>
<g clip-path="url(#clip1_3_4)">
<path d="M363.898 17.4433C344.317 19.7165 337.687 41.4745 329.583 56.3101C315.688 83.1599 288.801 100.002 272.041 124.842C262.417 136.222 248.571 144.351 243.448 159.135C234.079 175.567 223.322 192.029 210.869 205.862C197.572 210.02 181.729 218.886 168.693 209.084C145.185 197.642 123.396 183.094 100.615 170.417C84.3956 161.795 64.6615 165.066 50.0188 175.324C38.2403 180.817 22.3576 184.267 18.5388 198.763C13.7527 212.613 25.2622 226.935 39.3736 227.812C55.8402 230.1 72.1749 233.394 88.698 234.942C111.877 240.367 128.723 258.141 145.488 273.712C120.273 289.379 101.564 312.951 78.0795 330.702C65.0674 340.189 42.3925 342.123 39.4801 361.146C38.1527 373.574 49.1665 382.264 59.8742 385.547C64.8741 389.325 71.2243 390.978 77.4317 391.07C65.2975 395.035 48.0537 399.618 47.9039 415.348C47.2056 426.175 55.9121 435.678 65.8993 438.024C70.7817 446.555 81.6526 446.723 89.1328 450.441C98.1055 459.933 112.338 454.522 122.334 461.112C133.557 463.48 144.076 455.832 155.53 457.023C168.786 457.193 181.847 454.735 194.099 449.881C205.536 448.544 212.315 437.878 223.033 434.719C229.57 430.721 235.307 426.225 242.809 424.358C250.265 421.153 258.278 418.444 264.401 412.533C276.388 403.749 290.233 396.807 298.998 384.285C305.224 379.338 314.108 368.597 321.587 376.667C335.804 385.7 344.428 403.902 361.869 407.27C369.317 408.847 374.534 402.638 380.486 400.083C389.079 400.995 394.886 394.502 401.099 390.055C410.092 387.501 412.461 376.875 421.496 374.431C430.253 369.267 430.043 358.536 435.421 351.097C439.821 340.59 436.573 328.95 430.786 319.818C428.251 308.247 431.735 292.685 418.78 286.194C415.745 281.975 412.293 276.471 408.384 273.945C416.645 263.406 422.906 251.634 430.118 240.486C434.428 233.356 435.943 224.939 438.577 217.388C440.892 212.434 441.815 207.313 446.761 204.145C453.462 197.191 449.495 186.737 455.283 179.303C458.394 169.901 454.685 160.004 455.022 150.364C453.481 144.233 456.991 137.464 453.428 131.409C454.869 121.092 453.295 109.173 444.797 102.49C444.264 91.5035 433.439 83.309 423.034 83.2016C426.579 74.15 426.086 63.0289 419.813 55.3452C421.219 44.6376 414.054 34.4094 404.219 31.2564C398.783 21.9241 386.531 15.7034 376.226 21.0957C372.614 18.6737 368.273 17.2589 363.898 17.4433ZM450.825 141.59C450.517 141.286 451.13 141.955 450.825 141.59V141.59ZM390.637 289.637C389.684 289.822 391.589 289.372 390.637 289.637V289.637ZM413.847 377.349C413.561 377.379 413.973 377.322 413.847 377.349V377.349ZM412.545 379.47C411.938 381.075 413.049 377.739 412.545 379.47V379.47ZM269.873 407.388C269.339 407.514 270.359 407.249 269.873 407.388V407.388Z" fill="#20112C" stroke="#20112C" stroke-width="4.65834"/>
</g>
<g clip-path="url(#clip2_3_4)">
<path d="M381.472 1.44985C361.802 3.7332 355.142 25.5886 347.002 40.4906C333.044 67.4605 306.035 84.3778 289.199 109.329C279.532 120.76 265.623 128.925 260.477 143.776C251.066 160.281 240.26 176.816 227.751 190.712C214.394 194.888 198.479 203.793 185.384 193.948C161.769 182.455 139.882 167.842 116.998 155.108C100.705 146.447 80.8816 149.733 66.1727 160.037C54.3409 165.555 38.3863 169.02 34.5503 183.581C29.7425 197.493 41.3041 211.879 55.4793 212.759C72.0205 215.058 88.429 218.367 105.027 219.922C128.311 225.37 145.233 243.224 162.074 258.865C136.744 274.602 117.952 298.28 94.3603 316.11C81.2894 325.639 58.5119 327.582 55.5863 346.69C54.2529 359.174 65.3165 367.903 76.0727 371.201C81.0953 374.996 87.4742 376.656 93.7097 376.748C81.5205 380.731 64.1987 385.335 64.0483 401.135C63.3468 412.01 72.0927 421.556 82.125 423.912C87.0295 432.481 97.9497 432.65 105.464 436.385C114.477 445.919 128.774 440.484 138.815 447.104C150.089 449.482 160.656 441.801 172.161 442.997C185.477 443.167 198.597 440.698 210.905 435.822C222.394 434.479 229.203 423.766 239.969 420.593C246.537 416.577 252.299 412.061 259.835 410.185C267.325 406.966 275.375 404.245 281.525 398.308C293.566 389.484 307.474 382.511 316.279 369.932C322.533 364.964 331.457 354.174 338.97 362.281C353.251 371.354 361.914 389.638 379.434 393.021C386.916 394.605 392.156 388.368 398.135 385.802C406.768 386.717 412.601 380.196 418.841 375.729C427.876 373.163 430.255 362.49 439.33 360.034C448.127 354.847 447.916 344.069 453.319 336.596C457.739 326.042 454.476 314.35 448.663 305.178C446.116 293.555 449.616 277.923 436.603 271.403C433.553 267.166 430.086 261.637 426.159 259.099C434.458 248.514 440.747 236.689 447.991 225.49C452.321 218.329 453.843 209.874 456.489 202.29C458.815 197.313 459.741 192.169 464.71 188.986C471.441 182.002 467.457 171.501 473.27 164.034C476.395 154.59 472.67 144.649 473.009 134.966C471.46 128.807 474.987 122.007 471.407 115.925C472.855 105.562 471.274 93.5899 462.737 86.8775C462.202 75.8415 451.328 67.6103 440.875 67.5024C444.437 58.4103 443.942 47.2395 437.64 39.5214C439.052 28.7659 431.855 18.4919 421.976 15.3248C416.515 5.95077 404.208 -0.297839 393.856 5.11863C390.228 2.68576 385.867 1.26464 381.472 1.44985ZM468.793 126.152C468.483 125.846 469.099 126.519 468.793 126.152V126.152ZM408.332 274.862C407.375 275.047 409.288 274.596 408.332 274.862V274.862ZM431.647 362.965C431.359 362.996 431.774 362.939 431.647 362.965V362.965ZM430.34 365.096C429.729 366.708 430.846 363.358 430.34 365.096V365.096ZM287.021 393.139C286.485 393.265 287.51 393 287.021 393.139V393.139Z" fill="#F9F8FC" stroke="#20112C" stroke-width="4.65834"/>
</g>
<path d="M376.44 22C367.838 21.999 363.196 31.6016 354.768 49.0317C352.642 53.4306 350.633 57.5833 348.798 60.9605C343.96 69.8632 332.576 82.6157 317.568 95.9476C306.486 105.791 299.014 117.296 294.551 124.17L294.457 124.314C293.378 125.976 289.769 128.882 286.869 131.217C280.689 136.192 274.299 141.337 272.014 148.119C268.9 157.361 252.493 180.845 237.618 200.019C237.034 200.773 236.84 200.931 236.833 200.937C236.448 201.214 234.566 201.911 232.745 202.584C230.323 203.48 227.005 204.709 222.278 206.664C214.018 210.08 206.29 210.796 201.261 210.796C198.067 210.796 195.693 210.513 194.561 210.344C191.747 209.924 189.337 208.912 177.743 202.604C162.964 194.563 135.895 179.342 132.911 177.157C132.661 176.965 132.355 176.725 132.023 176.464C128.205 173.468 120.258 167.234 108.328 164.543C106.304 164.086 104.248 163.853 102.219 163.853C92.4034 163.852 85.1989 169.102 80.4316 172.576C79.4983 173.256 78.6175 173.897 77.9355 174.334C76.3359 175.359 72.5758 177.04 63.7468 179.22C63.358 179.317 63.051 179.393 62.8418 179.448C57.58 180.82 53.4737 186.97 54.0549 192.61C54.5134 197.055 58.0573 202.397 66.5364 202.817C72.2279 203.1 86.1457 205.52 91.3207 206.482C92.4665 206.752 96.3492 207.587 100.485 207.587C101.713 207.587 102.719 207.552 103.606 207.521C104.198 207.501 104.74 207.48 105.275 207.48C105.985 207.48 106.607 207.518 107.51 207.706L107.643 207.735L107.778 207.759C107.95 207.789 126.1 211.094 139.889 220.022C148.832 225.812 155.507 232.201 161.962 238.38C163.377 239.733 164.773 241.07 166.171 242.38C172.967 248.75 178.841 254.515 182.895 258.562C177.85 263.037 169.245 269.894 156.494 277.598C151.084 280.866 145.347 286.901 138.084 294.542C131.247 301.732 123.498 309.883 114.968 316.678C104.25 325.216 94.2266 329.172 87.5935 331.79C82.8118 333.676 79.9256 334.815 77.8316 337.369C74.0417 341.99 75.3801 346.182 76.1317 347.771C77.834 351.368 81.285 353.192 86.3904 353.192C86.8964 353.192 87.4383 353.179 88.0195 353.157C89.2197 356.038 92.236 359.633 99.8129 359.633C101.278 359.633 102.956 359.52 104.968 359.281C105.029 359.384 105.093 359.488 105.16 359.589C108.253 364.33 113.993 364.33 115.879 364.33C117.39 364.33 119.099 364.198 120.821 363.947C121.782 363.808 122.812 363.558 123.866 363.237C124.333 363.589 124.837 363.903 125.373 364.172C126.738 364.858 128.242 365.206 129.843 365.206C133.82 365.206 137.739 363.104 143.264 359.898C143.556 359.729 143.882 359.539 144.203 359.356C144.583 359.471 144.997 359.581 145.444 359.679C146.455 359.898 147.48 360.01 148.489 360.01C148.624 360.01 148.757 360.008 148.89 360.003C144.167 363.226 137.502 367.512 130.685 371.037C128.25 372.274 109.953 379.352 106.53 380.502C106.215 380.605 104.924 380.968 103.785 381.288C94.1087 384.011 90.683 385.165 88.6016 386.457C82.6308 389.925 83.0242 395.107 83.2923 396.631C84.0058 400.685 87.408 403.772 91.9613 404.495C92.5921 404.595 93.3686 404.678 96.495 404.678C96.7614 404.678 97.0533 404.678 97.3672 404.676C97.242 406.801 97.8952 408.909 99.2497 410.639C100.991 412.864 104.363 415.418 115.066 415.418C115.727 415.418 116.462 415.407 117.265 415.38C117.302 415.561 117.341 415.727 117.381 415.874C118.745 421.015 123.961 423.623 132.883 423.623C134.748 423.623 137.374 423.487 140.503 422.955C140.721 423.264 140.957 423.563 141.211 423.849C142.274 425.041 144.666 427.044 148.753 427.044C152.603 427.044 157.643 425.196 164.152 422.445C165.531 423.281 167.149 423.738 168.86 423.738C169.138 423.738 169.421 423.726 169.702 423.702C171.51 423.548 173.341 422.927 178.387 421.067C179.834 422.205 181.621 422.885 183.506 422.977C183.88 422.996 184.263 423.005 184.648 423.005C193.122 423.005 203.077 418.45 208.258 415.734C208.368 415.678 208.479 415.617 208.589 415.555C209.514 415.839 210.481 415.985 211.465 415.985C214.125 415.985 216.12 414.95 217.389 414.173C220.954 411.991 223.373 409.063 225.318 406.712C225.475 406.521 225.633 406.332 225.79 406.141C226.096 406.168 226.405 406.182 226.717 406.182C227.32 406.182 227.927 406.131 228.577 406.028C232.074 405.468 235.02 403.694 237.024 400.978C238.681 400.66 240.187 400.012 241.523 399.046C243.408 397.683 244.941 396.122 246.113 394.379C246.384 394.389 246.656 394.395 246.927 394.395C247.841 394.395 248.764 394.338 249.672 394.227C252.791 393.844 255.502 392.423 257.768 389.991C258.157 390.026 258.548 390.043 258.94 390.043C261.714 390.043 264.451 389.171 267.071 387.449C269.153 386.083 270.668 384.425 271.843 382.91C275.371 381.778 278.617 379.165 280.526 375.949C285.063 375.152 288.79 372.721 291.179 369.05C293.385 368.326 295.459 367.175 297.381 365.605C299.506 363.87 302.013 361.476 303.245 357.979C303.274 357.961 303.304 357.943 303.331 357.924C303.694 357.697 304.056 357.469 304.408 357.229C306.987 355.486 308.985 353.202 310.495 350.26C313.726 348.939 316.144 346.95 317.724 345.519L318.119 345.156C318.152 345.127 318.186 345.095 318.222 345.063C322.5 344.246 325.855 342.241 328.603 340.598C328.946 340.393 329.291 340.187 329.635 339.985C331.061 340.712 332.454 341.544 333.789 342.466C334.942 343.265 336.052 343.746 336.787 344.064C336.84 344.087 336.891 344.109 336.945 344.132C338.36 345.3 339.783 346.17 340.951 346.883C341.466 347.198 341.953 347.495 342.357 347.769C343.721 348.689 345.067 349.725 346.472 350.939C347.241 351.605 348.001 352.291 348.76 352.977C349.641 353.772 350.551 354.593 351.496 355.404C352.143 355.96 352.813 356.577 353.522 357.23C354.056 357.724 354.591 358.216 355.127 358.695C356.409 359.839 357.699 361.231 359.064 362.705L359.462 363.135C359.818 363.518 360.662 364.539 361.407 365.439C366.681 371.815 369.587 375.328 374.524 375.328H375.018L375.549 375.268C380.591 374.667 384.011 370.904 386.231 367.022C387.965 367.765 389.842 368.348 391.877 368.348C392.951 368.348 393.998 368.185 394.989 367.868C399.061 366.558 400.978 363.343 402.187 360.011C402.533 360.036 402.882 360.05 403.234 360.05C405.378 360.05 407.324 359.537 409.022 358.527L411.076 357.304L412.176 355.18C412.654 354.258 413.039 353.316 413.333 352.359C415.379 351.536 417.1 350.213 418.356 348.467C418.744 347.927 419.078 347.359 419.36 346.768C426.421 346.274 428.878 341.322 429.612 339.187C430.276 337.257 430.438 334.872 429.949 332.335C430.104 332.23 430.255 332.122 430.402 332.012C431.384 331.272 434.38 329.018 435.402 324.72C436.202 321.355 435.796 318.059 434.159 314.64C432.873 311.955 431.091 309.747 428.897 308.095C429.311 305.893 429.275 303.525 428.753 301.06C428.195 298.417 427.097 296.36 425.729 294.746C427.134 292.21 429.431 287.172 426.539 282.15C425.494 280.337 423.035 277.409 417.89 276.882C417.733 275.405 417.408 273.998 416.918 272.638C415.503 268.725 412.012 266.197 408.022 266.197C406.64 266.197 405.262 266.497 403.928 267.09C403.404 267.322 402.731 267.56 402.019 267.812C400.96 268.188 399.76 268.612 398.49 269.202C397.472 269.676 396.125 270.063 394.697 270.474C394.479 270.537 394.256 270.601 394.026 270.668C394.117 270.525 394.204 270.378 394.287 270.228C394.74 269.408 395.287 268.102 395.389 266.447C395.548 266.307 395.703 266.163 395.855 266.016C396.788 265.102 397.559 264.051 398.154 262.894C401.255 261.564 403.82 258.892 404.858 255.722C404.951 255.437 405.035 255.15 405.108 254.862C407.876 253.829 410.099 251.787 411.496 248.951C411.777 248.379 412.001 247.782 412.169 247.168C414.43 245.904 416.215 243.875 417.143 241.421C417.573 240.29 417.798 239.125 417.826 237.973C420.468 236.036 422.024 232.874 421.987 229.428C422.984 228.941 424.038 228.284 425.06 227.375C426.79 225.83 427.981 223.996 428.591 222.04C430.069 220.385 431.07 218.299 431.436 215.957C431.479 215.682 431.513 215.409 431.539 215.142C433.314 213.255 434.422 211.279 434.918 209.131C435.271 207.597 435.518 204.945 434.181 202.002C434.402 201.639 434.599 201.266 434.773 200.883C436.186 199.869 437.632 198.403 438.664 196.225C439.961 193.493 440.127 191.068 439.743 189.028C441.507 188.101 443.855 186.828 445.962 184.613C448.757 181.676 449.81 177.821 448.85 174.038C448.565 172.911 448.122 171.873 447.54 170.936C448.453 170.071 449.359 169.142 450.262 168.142C452.303 165.882 453.069 163.393 453.526 161.906C454.421 159.001 454.037 155.884 452.477 153.357C452.045 152.657 451.539 152.023 450.967 151.46C451.584 150.467 452.134 149.345 452.561 148.064C453.686 144.689 453.205 141.172 451.241 138.417C450.834 137.845 450.373 137.323 449.87 136.856C450.222 136.287 450.509 135.776 450.716 135.342C453.71 129.157 451.551 125.34 450.842 124.085C450.284 123.1 449.592 122.216 448.796 121.453C449.115 120.756 449.418 120.039 449.705 119.303C451.869 113.754 451.982 109.381 450.051 105.936C448.611 103.369 446.115 101.599 443.203 101.078L443.176 101.074L443.15 101.068C442.803 101.009 442.454 100.963 442.104 100.93C442.387 99.7419 442.612 98.5798 442.766 97.4555L442.769 97.4282L442.773 97.402C443.322 93.1854 441.617 89.1742 438.324 86.9349C436.697 85.8274 434.769 85.2416 432.748 85.2416C430.301 85.2416 427.921 86.0883 426.049 87.6234C425.808 87.8214 425.569 88.0237 425.333 88.2291C425.273 87.7785 425.202 87.3216 425.116 86.8605C424.479 83.4466 423.294 81.0386 421.865 79.3495C421.712 77.3156 421.183 75.3886 420.457 73.6512C422.414 70.4542 423.835 66.6588 423.933 63.0856C424.036 59.3185 422.656 56.0083 420.044 53.7649C419.375 53.1896 418.446 52.5546 417.24 52.0893C419.332 46.345 419.091 42.1828 416.59 39.0089C414.76 36.6868 411.987 35.3539 408.982 35.3529C407.906 35.3529 406.863 35.5122 405.832 35.8129C405.879 35.0228 405.878 34.2589 405.822 33.5348C405.447 28.8163 402.82 26.4932 401.289 25.5281C399.724 24.5432 397.913 24.0224 396.049 24.0224C392.382 24.0224 389.28 25.7995 385.864 29.2742C385.839 29.1957 385.816 29.1233 385.795 29.0563C384.69 25.5784 382.134 23.1097 378.784 22.284C378.021 22.0964 377.234 22 376.445 22H376.444H376.44Z" fill="#F9F8FC"/>
<path d="M109.292 199.515C109.322 199.521 109.361 199.53 109.409 199.54C109.369 199.531 109.335 199.525 109.292 199.515Z" fill="#F9C724"/>
<path d="M109.409 199.54C109.994 199.662 110.34 199.735 110.514 199.771C110.244 199.715 109.695 199.6 109.409 199.54Z" fill="#F9C724"/>
<path d="M109.228 199.501C109.252 199.507 109.268 199.51 109.292 199.515C109.255 199.508 109.228 199.501 109.228 199.501Z" fill="#F9C724"/>
<path d="M110.514 199.771C110.56 199.781 110.596 199.789 110.623 199.794C110.599 199.789 110.561 199.781 110.514 199.771Z" fill="#F9C724"/>
<path d="M110.623 199.794C110.675 199.804 110.68 199.806 110.623 199.794V199.794Z" fill="#F9C724"/>
<path d="M414.581 60.1233C411.738 57.6797 395.677 69.3005 395.677 69.3005C404.246 61.9225 411.849 46.5367 410.005 44.1958C408.161 41.8549 400.97 49.0631 397.486 52.2036C394 55.3451 372.647 74.0651 382.43 65.4768C392.213 56.8896 399.827 34.5146 396.821 32.6222C393.814 30.7276 386.41 41.6893 380.066 50.3321C373.722 58.9748 367.033 64.5296 367.033 64.5296C372.568 58.1313 381.359 31.5523 376.777 30.4227C372.195 29.2931 363.092 52.214 356.164 64.9634C349.235 77.7127 333.446 93.0566 323.135 102.215C312.824 111.373 305.744 122.325 301.488 128.879C297.241 135.42 282.579 143.02 279.958 150.796C275.079 165.27 247.583 200.851 244.242 205.158C240.9 209.466 240.127 208.354 225.483 214.409C210.839 220.466 197.648 219.281 193.322 218.634C188.995 217.988 185.802 216.532 173.736 209.968C161.671 203.403 131.217 186.421 127.839 183.831C124.462 181.241 117.56 175.219 106.484 172.719C95.4066 170.22 87.6515 178.063 82.4585 181.392C77.265 184.72 66.8033 187.077 64.9572 187.559C63.1112 188.04 59.3434 194.067 66.9522 194.446C74.5607 194.823 93.0718 198.281 93.0718 198.281C93.0718 198.281 95.1896 195.224 98.8223 190.458C102.284 185.917 103.514 179.785 108.773 181.598C114.033 183.411 114.647 194.923 109.228 199.501C109.228 199.501 128.975 202.969 144.445 212.985C156.069 220.512 163.961 228.819 171.902 236.264C185.14 248.67 194.796 258.679 194.796 258.679C193.244 260.454 182.564 271.64 160.829 284.773C151.724 290.275 137.742 309.254 120.192 323.235C102.641 337.217 86.4548 340.073 84.3132 342.685C82.1721 345.296 85.2931 344.991 93.364 344.418C101.436 343.845 115.638 338.262 115.638 338.262C110.815 342.423 95.5334 347.162 95.6068 349.448C95.68 351.734 100.537 351.518 106.702 350.587C112.868 349.654 123.121 344.642 123.121 344.642C117.26 350.643 113.054 352.02 112.162 354.047C111.27 356.076 115.595 356.236 119.618 355.651C123.64 355.068 131.194 350.746 131.194 350.746C131.194 350.746 126.832 355.523 129.137 356.682C131.441 357.839 140.433 351.502 142.709 350.684C144.985 349.867 144.854 350.973 147.223 351.487C149.591 352 150.94 350.961 153.332 350.608C155.723 350.256 154.865 350.984 157.808 350.028C160.752 349.072 166.902 348.212 171.504 347.224C176.106 346.235 181.735 345.83 181.735 345.83C182.722 345.185 183.73 344.568 184.693 343.888C186.236 342.797 187.893 341.818 189.332 340.649C190.896 339.379 192.708 338.578 194.286 337.373C195.444 336.49 196.904 336.003 198.068 335.127C199.939 333.721 202.034 332.642 204.048 331.563C206.338 330.337 208.579 329.001 210.85 327.744C213.356 326.358 215.852 324.924 218.214 323.266C220.572 321.609 223.079 320.158 225.564 318.689C226.013 318.425 226.245 317.996 226.736 317.731C228.024 317.035 229.266 316.219 230.446 315.31C232.192 313.969 234.058 312.785 235.848 311.499C237.597 310.243 239.314 308.941 241.047 307.661C239.981 307.565 234.42 306.373 232.499 306.128C228.496 305.617 224.495 305.34 220.502 306.047C218.15 306.463 216.013 307.412 214.606 309.502C213.891 310.563 213.505 310.613 212.675 309.567C211.494 308.079 210.728 306.346 210.037 304.605C209.436 303.087 209.195 301.456 209.323 299.804C209.571 296.594 211.175 294.144 213.634 292.185C214.014 291.883 214.4 291.715 214.271 291.011C213.757 288.251 214.865 286.026 216.818 284.158C218.662 282.393 220.906 281.267 223.252 280.366C229.934 277.8 236.973 277.127 244.027 276.571C250.491 276.059 256.955 275.548 263.229 273.758C266.071 272.947 268.921 272.151 271.604 270.863C273.516 269.945 275.413 269.016 277.13 267.754C279.297 266.161 281.336 264.426 283.122 262.412C283.888 261.549 284.58 260.557 285.369 259.781C288.022 257.17 290.25 254.27 292.303 251.184C293.899 248.785 295.288 246.254 296.744 243.785C298.042 241.582 299.223 239.261 300.419 236.973C301.267 235.351 302.168 233.756 303.012 232.134C303.534 231.129 303.822 229.951 304.519 229.1C306.037 227.246 306.823 224.981 307.872 222.925C309.235 220.255 310.764 217.652 311.989 214.896C313.105 212.387 314.508 210.005 315.775 207.563C316.877 205.437 317.939 203.29 319.071 201.179C320.084 199.293 321.14 197.428 322.239 195.591C322.673 194.866 323.076 194.037 323.651 193.487C325.19 192.009 326.218 190.142 327.6 188.545C328.668 187.312 329.842 186.133 330.843 184.806C332.074 183.174 333.756 181.844 335.101 180.307C336.908 178.24 338.87 176.315 340.79 174.394C343.117 172.065 345.499 169.776 347.838 167.447C349.428 165.863 351.014 164.271 352.549 162.635C355.208 159.801 357.877 156.975 360.442 154.06C362.285 151.965 364.049 149.79 365.774 147.602C366.839 146.249 367.893 144.858 368.891 143.435C370.572 141.032 372.192 138.585 373.927 136.215C375.199 134.477 376.305 132.532 377.276 130.597C378.492 128.181 379.991 125.952 381.38 123.66C382.526 121.772 383.728 119.886 384.803 117.976C386.279 115.352 388.172 112.938 389.158 110.035C389.621 108.675 390.225 107.355 390.702 106.005C391.842 102.778 392.518 99.4055 393.662 96.1677C394.859 92.781 396.256 78.9429 397.957 78.0763C400.814 76.6198 401.955 82.6764 402.179 83.4728C404.444 91.3139 401.401 106.176 401.09 107.408C403.062 103.304 405.924 97.2532 407.686 93.4422C408.695 91.3255 409.176 88.9814 410.319 86.8804C410.943 85.733 411.239 84.4253 412.655 83.9433C415.555 78.529 410.213 72.969 410.213 72.969C413.457 70.4783 417.425 62.5659 414.581 60.1233Z" fill="#20112C"/>
<path d="M97.9108 185.222C96.7303 185.222 95.7729 184.265 95.7729 183.085C95.7729 181.904 96.7303 180.947 97.9108 180.947C99.0916 180.947 100.048 181.904 100.048 183.085C100.048 184.265 99.0916 185.222 97.9108 185.222Z" fill="#F9F8FC"/>
<path d="M328.323 158.624L327.344 159.773L321.179 154.518L321.99 153.566C323.528 151.762 324.926 150.728 326.188 150.463C327.449 150.198 328.597 150.507 329.634 151.389C330.55 152.17 330.965 153.095 330.881 154.166C330.797 155.236 329.945 156.723 328.323 158.624ZM317.943 150.031L317.09 151.033L312.02 146.711L313.027 145.529C313.923 144.478 314.811 143.884 315.691 143.746C316.571 143.609 317.386 143.859 318.14 144.501C318.946 145.189 319.353 146.003 319.361 146.945C319.368 147.886 318.895 148.915 317.943 150.031ZM336.433 151.23C335.917 149.582 334.982 148.184 333.63 147.031C332.223 145.832 330.717 145.131 329.111 144.929C327.504 144.727 325.735 145.064 323.802 145.939C323.892 144.51 323.728 143.284 323.311 142.259C322.894 141.236 322.228 140.334 321.312 139.552C319.904 138.354 318.322 137.739 316.56 137.708C314.798 137.677 313.112 138.219 311.503 139.334C310.353 140.108 308.844 141.592 306.975 143.787L303.75 147.568L327.807 168.074L333.558 161.328C335.214 159.385 336.235 157.628 336.625 156.056C337.015 154.484 336.95 152.876 336.433 151.23Z" fill="#F9F8FC"/>
<path d="M274.898 225.845C271.788 224.586 269.022 224.479 266.603 225.525C264.426 226.469 262.638 228.673 261.235 232.139L260.47 234.032L278.955 241.511L280.003 238.921C281.035 236.372 281.491 234.405 281.37 233.018C281.251 231.633 280.647 230.296 279.561 229.006C278.472 227.716 276.919 226.662 274.898 225.845ZM287.387 234.251C287.244 235.983 286.403 238.747 284.867 242.541L282.153 249.25L252.85 237.393L255.524 230.785C257.248 226.526 259.055 223.575 260.949 221.933C262.841 220.29 265.248 219.279 268.167 218.901C271.088 218.523 274.134 218.975 277.308 220.26C279.565 221.173 281.489 222.388 283.078 223.903C284.668 225.418 285.819 227.09 286.533 228.915C287.247 230.739 287.532 232.519 287.387 234.251Z" fill="#F9F8FC"/>
<path d="M292.024 191.879C289.392 190.422 286.675 190.074 283.872 190.834C281.069 191.593 278.966 193.241 277.562 195.775C276.146 198.334 275.845 200.98 276.659 203.708C277.473 206.437 279.254 208.561 281.998 210.081C285.057 211.773 288.083 212.015 291.079 210.805C293.414 209.868 295.193 208.296 296.416 206.088C297.798 203.591 298.073 200.964 297.24 198.208C296.407 195.453 294.669 193.343 292.024 191.879ZM301.511 208.908C299.212 213.06 295.869 215.714 291.478 216.873C287.087 218.03 282.918 217.516 278.97 215.331C276.325 213.867 274.247 211.882 272.737 209.373C271.226 206.867 270.441 204.134 270.385 201.178C270.326 198.221 271.011 195.45 272.443 192.866C274.608 188.954 277.887 186.373 282.278 185.126C286.669 183.877 290.903 184.381 294.975 186.636C299.011 188.87 301.658 192.15 302.915 196.475C304.173 200.801 303.706 204.945 301.511 208.908Z" fill="#F9F8FC"/>
<path d="M320.314 177.965C320.001 179.358 319.339 180.768 318.328 182.194C317.002 184.063 315.417 185.386 313.576 186.161C311.736 186.936 309.958 187.164 308.245 186.843C306.531 186.524 304.137 185.274 301.064 183.093L285.693 172.188L289.187 167.263L305.859 179.091C307.294 180.111 308.4 180.706 309.173 180.877C309.948 181.048 310.718 180.971 311.484 180.644C312.251 180.319 312.923 179.747 313.504 178.929C314.117 178.064 314.447 177.179 314.493 176.271C314.54 175.366 314.342 174.575 313.899 173.9C313.456 173.226 312.37 172.276 310.643 171.05L294.583 159.658L298.077 154.732L313.449 165.637C316.043 167.477 317.739 168.9 318.536 169.905C319.334 170.91 319.908 172.155 320.258 173.642C320.608 175.13 320.627 176.57 320.314 177.965Z" fill="#F9F8FC"/>
<path d="M344.289 149.284L321.762 127.108L325.983 122.819L344.421 140.97L350.572 134.723L354.661 138.748L344.289 149.284Z" fill="#F9F8FC"/>
<path d="M357.654 135.947L336.615 112.353L349.494 100.868L353.412 105.263L344.992 112.772L348.797 117.038L357.217 109.53L361.064 113.844L352.644 121.352L358.179 127.56L366.599 120.051L370.532 124.461L357.654 135.947Z" fill="#F9F8FC"/>
<path d="M443.911 156.895C442.935 156.732 441.933 156.863 440.926 156.998C439.372 157.208 437.928 157.739 436.432 158.108C434.485 158.588 432.513 158.97 430.541 159.335C429.247 159.575 427.933 159.709 426.628 159.89C429.312 158.604 431.794 157.062 434.262 155.484C436.489 154.059 438.522 152.411 440.484 150.641C442.17 149.118 443.854 147.674 444.608 145.412C445.121 143.876 444.381 142.548 442.836 142.533C440.148 142.505 437.622 143.154 435.172 144.253C434.233 144.675 433.158 144.796 431.997 145.092C434.151 143.669 441.729 134.696 443.159 131.715C443.637 130.728 444.247 129.454 443.545 128.212C442.635 126.605 440.587 126.109 438.868 127.186C437.084 128.306 432.808 130.364 432.782 130.295C432.692 130.048 436.671 124.905 437.594 123.767C439.447 121.485 440.828 118.994 441.894 116.257C442.436 114.87 444.255 109.781 441.728 109.331C439.901 109.015 438.291 109.746 437.07 110.837C434.602 113.042 431.956 115.027 429.432 117.157C428.137 118.25 425.178 120.68 425.001 120.508C424.873 120.383 433.192 105.601 434.46 96.3206C434.584 95.3744 434.369 94.3831 433.609 93.8655C432.967 93.4285 431.942 93.6318 431.365 94.1065C429.73 95.4467 428.271 96.9986 427.001 98.6919C426.437 99.4443 425.722 100.034 425.157 100.787C423.838 102.542 422.397 104.207 420.967 105.873C419.578 107.49 418.039 108.987 416.757 110.683C415.768 111.99 413.345 113.709 413.446 113.433C414.531 110.463 415.187 107.369 415.968 104.317C416.611 101.811 417.047 99.2295 417.11 96.6392C417.179 93.8938 417.384 91.1232 416.876 88.3978C416.383 85.7571 415.675 83.6405 412.655 83.9433C411.239 84.4253 410.943 85.733 410.319 86.8804C409.176 88.9814 408.695 91.3255 407.686 93.4422C405.924 97.2532 403.062 103.304 401.09 107.408C401.401 106.176 404.444 91.3139 402.179 83.4728C401.955 82.6764 400.814 76.6198 397.957 78.0763C396.256 78.9429 394.859 92.781 393.662 96.1677C392.518 99.4055 391.842 102.778 390.702 106.005C390.225 107.355 389.621 108.675 389.158 110.035C388.172 112.938 386.279 115.352 384.803 117.976C383.728 119.886 382.526 121.772 381.38 123.66C379.991 125.952 378.492 128.181 377.276 130.597C376.305 132.532 375.199 134.477 373.927 136.215C372.192 138.585 370.572 141.032 368.891 143.435C367.893 144.858 366.839 146.249 365.774 147.602C364.049 149.79 362.285 151.965 360.442 154.06C357.877 156.975 355.208 159.801 352.549 162.635C351.014 164.271 349.428 165.863 347.838 167.447C345.499 169.776 343.117 172.065 340.79 174.394C338.87 176.315 336.908 178.24 335.101 180.307C333.756 181.844 332.074 183.174 330.843 184.806C329.842 186.133 328.668 187.312 327.6 188.545C326.218 190.142 325.19 192.009 323.651 193.487C323.076 194.037 322.673 194.866 322.239 195.591C321.14 197.428 320.084 199.293 319.071 201.179C317.939 203.29 316.877 205.437 315.775 207.563C314.508 210.005 313.105 212.387 311.989 214.896C310.764 217.652 309.235 220.255 307.872 222.925C306.823 224.981 306.037 227.246 304.519 229.1C303.822 229.951 303.534 231.129 303.012 232.134C302.168 233.756 301.267 235.351 300.419 236.973C299.223 239.261 298.042 241.582 296.744 243.785C295.288 246.254 293.899 248.785 292.303 251.184C290.25 254.27 288.022 257.17 285.369 259.781C284.58 260.557 283.888 261.549 283.122 262.412C281.336 264.426 279.297 266.161 277.13 267.754C275.413 269.016 273.516 269.945 271.604 270.863C268.921 272.151 266.071 272.947 263.229 273.758C256.955 275.548 250.491 276.059 244.027 276.571C236.973 277.127 229.934 277.8 223.252 280.366C220.906 281.267 218.662 282.393 216.818 284.158C214.865 286.026 213.757 288.251 214.271 291.011C214.4 291.715 214.014 291.883 213.634 292.185C211.175 294.144 209.571 296.594 209.323 299.804C209.195 301.456 209.436 303.087 210.037 304.605C210.728 306.346 211.494 308.079 212.675 309.567C213.505 310.613 213.891 310.563 214.606 309.502C216.013 307.412 218.15 306.463 220.502 306.047C224.495 305.34 228.496 305.617 232.499 306.128C234.42 306.373 239.981 307.565 241.047 307.661C239.314 308.941 237.597 310.243 235.848 311.499C234.058 312.785 232.192 313.969 230.446 315.31C229.266 316.219 228.024 317.035 226.736 317.731C226.245 317.996 226.013 318.425 225.564 318.689C223.079 320.158 220.572 321.609 218.214 323.266C215.852 324.924 213.356 326.358 210.85 327.744C208.579 329.001 206.338 330.337 204.048 331.563C202.034 332.642 199.939 333.721 198.068 335.127C196.904 336.003 195.444 336.49 194.286 337.373C192.708 338.578 190.896 339.379 189.332 340.649C187.893 341.818 186.236 342.797 184.693 343.888C183.73 344.568 182.722 345.185 181.735 345.83C180.223 347.352 178.36 348.41 176.665 349.687C173.845 351.811 171.107 354.039 168.279 356.156C165.765 358.036 163.227 359.891 160.759 361.836C160.408 362.113 147.81 371.619 134.535 378.483C131.727 379.948 112.488 387.344 109.2 388.448C107.459 389.034 94.8839 392.299 92.9417 393.632C90.2217 395.138 92.0903 396.028 93.276 396.216C94.4623 396.404 107.586 396.29 116.18 395.516C124.773 394.742 134.502 392.693 135.828 392.285C135.828 392.285 128.7 396.394 120.485 399.179C112.269 401.963 106.29 402.897 105.748 405.087C105.207 407.277 124.009 409.438 145.228 400.691C145.228 400.691 138.955 405.495 135.265 407.697C131.575 409.9 125.113 412.329 125.483 413.723C125.852 415.117 138.753 417.571 152.514 409.984C152.514 409.984 145.398 415.944 147.473 418.274C149.547 420.605 167.055 411.645 169.074 411.389C171.091 411.132 166.745 415.541 168.996 415.349C170.775 415.197 181.263 410.801 183.052 410.69C184.545 410.596 182.385 414.529 183.92 414.604C191.129 414.961 201.528 409.798 204.366 408.31C206.281 407.306 209.696 404.277 209.873 404.449C210.001 404.573 209.745 406.706 210.579 407.305C211.43 407.917 212.305 407.457 213.012 407.024C216.007 405.19 217.992 402.32 220.234 399.73C221.356 398.435 222.017 396.78 223.239 395.547C224.095 396.206 224.949 396.867 225.808 397.522C226.243 397.855 226.771 397.827 227.25 397.75C228.695 397.519 229.838 396.853 230.596 395.51C231.004 394.79 231.32 394.043 231.645 393.294C231.862 392.796 232.067 392.606 232.739 392.684C234.037 392.838 235.512 393.048 236.61 392.253C238.189 391.111 239.504 389.669 240.121 387.692C240.711 385.797 241.879 385.218 243.809 385.66C245.409 386.027 247.054 386.102 248.651 385.907C250.854 385.636 252.132 383.935 253.132 382.193C254.015 380.654 254.342 380.344 256.027 380.912C256.298 381.004 256.576 381.087 256.839 381.201C258.872 382.088 260.688 381.613 262.47 380.442C264.196 379.308 265.328 377.67 266.481 376.04C266.854 375.513 267.234 375.085 267.959 375.127C270.184 375.259 273.435 372.635 273.873 370.292C274.284 368.089 274.797 367.841 277.062 367.841C277.27 367.841 277.48 367.848 277.689 367.838C281.095 367.695 283.957 366.064 285.136 362.371C285.287 361.896 285.583 361.589 286.112 361.554C288.372 361.405 290.296 360.569 292.079 359.113C293.59 357.879 295.054 356.486 295.476 354.723C296.069 352.245 298.017 351.431 299.715 350.282C301.345 349.183 302.427 347.738 303.243 346.016C303.613 345.236 303.575 344.123 304.416 343.746C305.205 343.393 305.985 342.987 306.809 342.697C308.837 341.983 310.516 340.737 312.097 339.304C313.193 338.313 314.306 337.145 315.83 336.958C319.723 336.476 322.837 334.203 326.059 332.371C328.125 331.194 329.837 330.822 331.867 331.755C334.206 332.828 336.433 334.104 338.559 335.573C339.619 336.308 341.037 336.581 341.983 337.413C343.533 338.775 345.373 339.691 347.044 340.818C348.772 341.985 350.402 343.256 351.953 344.598C353.637 346.052 355.278 347.602 356.958 349.045C358.23 350.138 359.462 351.328 360.708 352.44C362.431 353.977 364.022 355.724 365.609 357.435C367.493 359.466 373.266 367.097 374.564 366.943C378.223 366.508 380.844 358.714 381.239 357.365C381.369 356.924 381.38 356.243 382.055 356.281C385.211 356.461 390.282 360.576 392.423 359.886C394.397 359.251 395.033 353.789 396.575 349.804C398.45 350.387 402.789 352.482 404.734 351.325C405.787 349.288 405.986 347.152 405.057 344.957C406.205 344.957 407.383 345.028 408.549 344.942C411.015 344.764 412.637 343.394 411.886 340.464C411.651 339.551 411.462 338.628 411.223 337.571C413.711 338.39 416.138 338.528 418.588 338.415C419.981 338.353 421.151 338.013 421.684 336.46C422.123 335.181 421.954 330.791 416.984 326.973C420.037 327.219 424.041 326.307 425.36 325.314C426.173 324.702 426.962 323.973 427.247 322.779C427.639 321.129 427.289 319.704 426.598 318.259C425.531 316.031 423.861 314.375 421.562 313.579C419.978 313.031 418.61 312.063 416.655 311.661C420.496 309.584 421.277 306.227 420.552 302.792C419.696 298.739 415.938 297.798 412.476 296.809C412.791 296.559 416.751 293.586 417.843 291.65C418.767 290.013 422.65 284.097 414.123 285.357C412.239 285.375 410.355 285.361 408.432 285.361C408.774 283.774 409.351 282.313 409.523 280.752C409.72 278.957 409.647 277.185 409.034 275.487C408.777 274.778 408.323 274.31 407.326 274.752C405.597 275.52 403.753 276.001 402.022 276.804C399.371 278.037 396.473 278.567 393.725 279.555C391.073 280.51 388.245 280.907 385.516 281.623C383.327 282.198 381.13 282.72 378.903 283.073C376.583 283.442 374.226 283.565 371.897 283.882C368.522 284.342 365.139 284.414 361.723 284.256C364.384 283.678 366.667 282.344 368.873 280.84C369.088 280.692 369.373 280.553 369.335 280.314C369.061 278.565 370.266 278.88 371.298 278.807C372.831 278.696 374.381 278.147 375.047 276.799C375.549 275.783 375.811 275.748 376.799 275.959C379.305 276.495 380.786 275.453 380.41 272.87C380.336 272.365 380.159 271.874 380.023 271.353C381.166 271.211 382.236 270.824 382.635 269.753C383.065 268.598 382.27 267.602 381.637 266.675C382.02 266.454 382.307 266.483 382.593 266.556C383.778 266.863 384.938 266.747 386.142 266.573C387.142 266.428 387.129 265.916 386.862 265.314C386.253 263.94 385.737 262.516 384.858 261.221C385.469 261.221 386.055 261.222 386.641 261.221C389.469 261.217 391.225 259.529 391.22 256.715C391.218 255.895 391.435 255.591 392.267 255.674C392.923 255.74 393.581 255.503 394.216 255.384C395.478 255.144 396.576 254.076 396.89 253.114C397.338 251.745 397.285 250.075 396.295 248.692C396 248.282 395.334 247.458 395.334 247.458C397.39 247.227 399.461 247.527 401.52 247.181C402.792 246.968 403.501 246.21 403.975 245.247C404.497 244.185 403.962 242.167 403.126 241.584C402.654 241.254 402.255 240.914 401.975 240.349C402.595 240.349 403.175 240.356 403.757 240.348C404.999 240.334 406.244 240.438 407.471 240.1C408.949 239.692 409.933 238.011 409.183 236.861C408.656 236.053 408.32 235.098 407.302 234.562C406.673 234.23 406.01 233.741 405.383 233.227C406.715 232.656 408.093 232.775 409.4 232.403C410.532 232.083 411.686 231.899 412.73 231.301C413.794 230.693 413.947 228.593 412.859 228.083C411.786 227.58 411.159 226.458 409.782 226.251C411.381 225.622 412.746 225.001 413.737 223.774C414.102 223.324 414.587 223.118 415.178 222.926C416.648 222.451 418.218 222.243 419.481 221.117C420.478 220.228 421.017 219.194 420.443 217.928C420.25 217.503 420.332 217.533 420.68 217.441C422.103 217.065 422.934 216.068 423.152 214.667C423.363 213.318 423.18 212.022 421.771 211.291C422.909 210.861 424.009 210.772 424.97 209.862C426.801 208.125 427.598 206.46 425.826 204.361C424.87 203.231 424.933 202.409 425.157 201.22C425.381 200.032 425.679 198.953 426.616 198.121C427.355 197.466 427.453 196.462 427.081 195.766C426.757 195.164 427.079 195.401 427.314 195.301C428.761 194.684 430.312 194.274 431.09 192.634C431.576 191.609 431.842 190.667 430.977 189.379C430.111 188.091 424.561 186.775 423.18 186.393C424.184 185.897 425.172 185.639 426.133 185.342C429.004 184.454 431.908 183.748 434.585 182.278C436.445 181.256 438.366 180.436 439.889 178.835C440.719 177.963 440.97 177.064 440.725 176.097C440.495 175.186 439.725 173.898 436.937 173.954C433.004 173.975 429.072 173.964 425.139 173.964C427.787 173.217 430.302 172.229 432.729 171.041C434.355 170.244 435.894 169.293 437.427 168.302C439.941 166.677 442.065 164.71 444.039 162.524C444.833 161.645 445.177 160.532 445.514 159.441C445.794 158.531 445.561 157.172 443.911 156.895Z" fill="#F9C724"/>
<path d="M239.956 287.122C237.135 287.89 234.311 288.643 231.485 289.389C230.824 289.563 230.268 289.768 230.048 290.549C229.826 291.337 229.218 291.889 228.547 292.343C228.286 292.519 228.021 292.86 227.689 292.472C227.388 292.119 227.481 291.803 227.819 291.499C228.649 290.749 228.82 289.8 228.585 288.749C228.492 288.332 228.408 287.908 227.789 288.065C227.226 288.208 227.381 288.532 227.48 288.921C227.678 289.705 227.601 290.43 226.804 290.886C225.965 291.364 225.198 291.277 224.544 290.551C224.322 290.305 224.156 290.129 223.854 290.453C223.602 290.723 223.635 290.938 223.85 291.208C224.293 291.77 224.9 292.031 225.568 292.158C225.932 292.226 226.237 292.295 226.189 292.753C226.143 293.203 225.754 293.237 225.43 293.237C225.264 293.242 225.074 293.197 224.933 293.13C223.301 292.356 221.606 291.805 219.82 291.507C219.485 291.451 219.039 291.214 219.146 290.737C219.274 290.161 219.764 290.446 220.084 290.488C221.078 290.616 221.864 290.188 222.637 289.661C224.121 288.648 225.583 287.597 227.111 286.654C228.751 285.641 230.538 285.104 232.497 285.48C233.092 285.593 233.526 285.774 232.816 286.39C232.412 286.739 232.012 287.118 231.856 287.821C234.578 287.308 237.157 286.811 239.74 286.344C240.139 286.272 240.75 285.825 240.906 286.491C241.006 286.915 240.34 287.017 239.956 287.122Z" fill="#F9F8FC"/>
<path d="M333.298 279.633L309.58 258.734L320.988 245.788L325.406 249.68L317.947 258.145L322.236 261.924L329.695 253.459L334.032 257.281L326.574 265.745L332.814 271.243L340.272 262.779L344.705 266.685L333.298 279.633Z" fill="#F9F8FC"/>
<path d="M362.813 242.109C362.447 244.708 361.324 247.218 359.445 249.641C357.434 252.233 355.077 254.108 352.376 255.267C349.673 256.424 346.821 256.787 343.821 256.354C340.82 255.922 338.114 254.77 335.704 252.9C332.398 250.335 330.37 247.013 329.62 242.931C328.722 238.083 329.883 233.58 333.106 229.427C334.792 227.253 336.77 225.534 339.04 224.267C340.958 223.197 343.336 222.54 346.174 222.294L346.887 228.21C343.002 228.59 339.966 230.19 337.778 233.01C335.871 235.469 335.089 238.16 335.431 241.085C335.773 244.009 337.11 246.375 339.442 248.185C341.854 250.055 344.565 250.779 347.576 250.356C350.588 249.933 353.073 248.459 355.034 245.931C356.308 244.288 357.038 242.635 357.222 240.972C357.406 239.309 357.03 237.561 356.095 235.728L350.484 242.962L346.018 239.497L355.765 226.932L356.844 227.715C359.028 229.41 360.661 231.584 361.741 234.234C362.823 236.885 363.179 239.51 362.813 242.109Z" fill="#F9F8FC"/>
<path d="M386.859 208.257L359.298 192.777L367.748 177.732L372.881 180.616L367.357 190.452L372.342 193.252L377.866 183.415L382.906 186.246L377.381 196.082L384.632 200.154L390.156 190.318L395.309 193.212L386.859 208.257Z" fill="#F9F8FC"/>
<path d="M398.535 186.807L369.826 173.574L377.05 157.903L382.397 160.368L377.674 170.614L382.865 173.006L387.588 162.76L392.838 165.181L388.115 175.426L395.668 178.908L400.391 168.662L405.757 171.136L398.535 186.807Z" fill="#F9F8FC"/>
<path d="M313.465 278.195C311.062 275.852 308.542 274.708 305.907 274.76C303.536 274.81 301.045 276.174 298.436 278.852L297.012 280.314L311.294 294.231L313.243 292.231C315.163 290.261 316.329 288.613 316.742 287.284C317.155 285.956 317.102 284.489 316.585 282.884C316.065 281.28 315.026 279.716 313.465 278.195ZM321.845 290.701C321.056 292.251 319.233 294.49 316.375 297.422L311.326 302.604L288.687 280.543L293.662 275.438C296.868 272.147 299.659 270.099 302.033 269.294C304.407 268.492 307.017 268.465 309.863 269.22C312.708 269.975 315.358 271.547 317.809 273.936C319.554 275.636 320.874 277.489 321.772 279.492C322.67 281.496 323.104 283.478 323.074 285.438C323.045 287.398 322.635 289.152 321.845 290.701Z" fill="#F9F8FC"/>
<path d="M360.876 207.37C360.299 206.99 359.701 206.809 359.078 206.826C358.456 206.843 357.886 207.041 357.37 207.419C356.853 207.796 356.155 208.654 355.275 209.989L354.367 211.366L359.785 214.939L360.822 213.365C361.875 211.767 362.391 210.528 362.369 209.649C362.345 208.771 361.848 208.01 360.876 207.37ZM380.075 219.144L364.986 217.708L364.683 218.168L375.859 225.538L372.548 230.561L346.157 213.16L349.666 207.837C351.589 204.923 353.217 203.019 354.552 202.125C355.888 201.232 357.408 200.807 359.112 200.851C360.816 200.895 362.494 201.461 364.144 202.549C365.879 203.692 367.055 205.065 367.672 206.665C368.29 208.265 368.347 210.099 367.842 212.167L383.696 213.652L380.075 219.144Z" fill="#F9F8FC"/>
<defs>
<clipPath id="clip0_3_4">
<rect width="441" height="446" fill="white" transform="translate(0 32)"/>
</clipPath>
<clipPath id="clip1_3_4">
<rect width="442" height="447" fill="white" transform="translate(16 16)"/>
</clipPath>
<clipPath id="clip2_3_4">
<rect width="444" height="449" fill="white" transform="translate(32)"/>
</clipPath>
</defs>
</svg>
