<svg width="54" height="56" viewBox="0 0 54 56" fill="none" xmlns="http://www.w3.org/2000/svg">
<g id="header no text logo">
<g id="no text logo">
<path d="M43.5294 1.18555e-08C42.3681 -0.000144862 41.7414 1.32748 40.6037 3.73731C40.3166 4.34549 40.0455 4.91963 39.7978 5.38655C39.1446 6.6174 37.6078 8.38052 35.5816 10.2238C34.0855 11.5847 33.0769 13.1753 32.4744 14.1256L32.4617 14.1456C32.316 14.3754 31.8288 14.7771 31.4373 15.0999C30.6031 15.7878 29.7404 16.4991 29.4319 17.4367C29.0115 18.7145 26.7966 21.9614 24.7884 24.6123C24.7096 24.7165 24.6835 24.7384 24.6825 24.7393C24.6304 24.7775 24.3764 24.8738 24.1306 24.967C23.8036 25.0909 23.3557 25.2608 22.7176 25.531C21.6024 26.0033 20.5592 26.1024 19.8803 26.1024C19.4491 26.1024 19.1286 26.0633 18.9758 26.0398C18.5958 25.9817 18.2705 25.8419 16.7053 24.9697C14.7102 23.858 11.0558 21.7535 10.653 21.4515C10.6192 21.425 10.578 21.3918 10.5331 21.3557C10.0176 20.9415 8.9449 20.0795 7.33434 19.7075C7.06098 19.6443 6.78346 19.6122 6.50961 19.6122C5.18446 19.612 4.21185 20.3378 3.56826 20.8181C3.44227 20.9121 3.32336 21.0008 3.2313 21.0612C3.01534 21.2029 2.50774 21.4353 1.31582 21.7367C1.26333 21.7501 1.22188 21.7606 1.19365 21.7682C0.4833 21.958 -0.0710519 22.8082 0.00741498 23.5879C0.0693044 24.2025 0.547732 24.9411 1.69241 24.9992C2.46077 25.0383 4.33966 25.3729 5.0383 25.5059C5.19297 25.5432 5.71714 25.6586 6.27553 25.6586C6.44126 25.6586 6.57703 25.6538 6.69688 25.6495C6.77667 25.6467 6.8499 25.6438 6.92211 25.6438C7.01798 25.6438 7.10192 25.6491 7.22382 25.6751L7.24184 25.679L7.26002 25.6824C7.28328 25.6866 9.73344 26.1435 11.595 27.3778C12.8024 28.1784 13.7035 29.0617 14.5749 29.916C14.7659 30.1031 14.9543 30.2879 15.143 30.469C16.0605 31.3497 16.8536 32.1468 17.4009 32.7063C16.7198 33.3249 15.5581 34.273 13.8366 35.3381C13.1064 35.7899 12.3319 36.6243 11.3513 37.6807C10.4283 38.6748 9.38221 39.8018 8.23069 40.7412C6.78375 41.9217 5.43058 42.4686 4.53512 42.8305C3.88959 43.0913 3.49996 43.2488 3.21727 43.6018C2.70563 44.2407 2.88632 44.8204 2.98777 45.04C3.21759 45.5373 3.68348 45.7896 4.37271 45.7896C4.44102 45.7896 4.51417 45.7877 4.59264 45.7846C4.75465 46.1829 5.16186 46.68 6.18474 46.68C6.38258 46.68 6.60901 46.6644 6.88062 46.6313C6.8889 46.6456 6.89752 46.66 6.90654 46.6739C7.32417 47.3295 8.09906 47.3295 8.35363 47.3295C8.55764 47.3295 8.78835 47.3112 9.02087 47.2764C9.15057 47.2573 9.28961 47.2227 9.43195 47.1783C9.495 47.227 9.56297 47.2703 9.63535 47.3076C9.81958 47.4025 10.0227 47.4506 10.2388 47.4506C10.7757 47.4506 11.3048 47.1599 12.0507 46.7166C12.0901 46.6933 12.1341 46.6671 12.1775 46.6417C12.2287 46.6577 12.2846 46.6729 12.3449 46.6864C12.4815 46.7166 12.6198 46.7321 12.756 46.7321C12.7743 46.7321 12.7923 46.7319 12.8101 46.7312C12.1725 47.1767 11.2728 47.7693 10.3524 48.2567C10.0237 48.4277 7.55367 49.4064 7.09154 49.5653C7.04899 49.5795 6.87481 49.6297 6.72102 49.6739C5.41467 50.0505 4.95221 50.21 4.67122 50.3886C3.86516 50.8681 3.91826 51.5845 3.95446 51.7952C4.05078 52.3557 4.51008 52.7825 5.12477 52.8824C5.20993 52.8964 5.31476 52.9078 5.73682 52.9078C5.77279 52.9078 5.81219 52.9078 5.85457 52.9075C5.83767 53.2013 5.92586 53.4928 6.10871 53.732C6.34383 54.0396 6.79894 54.3926 8.2439 54.3926C8.33313 54.3926 8.43233 54.3912 8.5408 54.3874C8.54576 54.4124 8.55107 54.4354 8.55637 54.4558C8.74061 55.1665 9.44476 55.527 10.6492 55.527C10.901 55.527 11.2555 55.5083 11.678 55.4347C11.7074 55.4774 11.7392 55.5187 11.7735 55.5583C11.917 55.7232 12.24 56 12.7916 56C13.3115 56 13.9919 55.7446 14.8706 55.3641C15.0567 55.4798 15.2751 55.5429 15.5062 55.5429C15.5436 55.5429 15.5818 55.5413 15.6198 55.538C15.8639 55.5167 16.111 55.4308 16.7922 55.1737C16.9875 55.3311 17.2289 55.425 17.4834 55.4378C17.5339 55.4404 17.5855 55.4417 17.6374 55.4417C18.7814 55.4417 20.1254 54.8119 20.8248 54.4364C20.8397 54.4286 20.8547 54.4201 20.8695 54.4116C20.9944 54.4509 21.125 54.471 21.2578 54.471C21.6169 54.471 21.8862 54.328 22.0575 54.2205C22.5388 53.9189 22.8654 53.5141 23.128 53.189C23.1492 53.1626 23.1704 53.1364 23.1916 53.1101C23.2329 53.1138 23.2746 53.1157 23.3168 53.1157C23.3981 53.1157 23.4802 53.1088 23.5679 53.0944C24.04 53.0171 24.4377 52.7718 24.7082 52.3963C24.9319 52.3522 25.1353 52.2627 25.3157 52.1291C25.5701 51.9407 25.7771 51.7249 25.9353 51.4838C25.9719 51.4853 26.0085 51.486 26.0452 51.486C26.1685 51.486 26.2931 51.4782 26.4157 51.4628C26.8368 51.4099 27.2027 51.2135 27.5087 50.8772C27.5612 50.882 27.614 50.8845 27.6669 50.8845C28.0413 50.8845 28.4108 50.7638 28.7646 50.5258C29.0457 50.3369 29.2501 50.1077 29.4088 49.8982C29.8851 49.7417 30.3232 49.3805 30.581 48.9358C31.1935 48.8257 31.6967 48.4896 32.0192 47.982C32.317 47.8819 32.597 47.7228 32.8564 47.5058C33.1433 47.2659 33.4818 46.9348 33.648 46.4513C33.652 46.4489 33.6561 46.4463 33.6598 46.4437C33.7087 46.4124 33.7575 46.3808 33.805 46.3476C34.1533 46.1067 34.4229 45.7909 34.6268 45.3842C35.063 45.2015 35.3894 44.9265 35.6027 44.7286L35.6561 44.6786C35.6606 44.6745 35.6651 44.67 35.6699 44.6657C36.2475 44.5526 36.7005 44.2755 37.0714 44.0484C37.1178 44.0199 37.1643 43.9915 37.2107 43.9636C37.4032 44.0641 37.5912 44.1791 37.7715 44.3066C37.9272 44.417 38.077 44.4835 38.1762 44.5276C38.1834 44.5306 38.1903 44.5338 38.1975 44.5368C38.3887 44.6984 38.5808 44.8186 38.7384 44.9173C38.808 44.9608 38.8736 45.0019 38.9282 45.0397C39.1124 45.1669 39.294 45.3102 39.4837 45.4781C39.5875 45.5701 39.6901 45.665 39.7927 45.7597C39.9115 45.8697 40.0344 45.9833 40.162 46.0954C40.2493 46.1722 40.3397 46.2575 40.4355 46.3478C40.5076 46.4161 40.5798 46.4841 40.6522 46.5503C40.8252 46.7085 40.9993 46.9009 41.1837 47.1047L41.2374 47.1643C41.2854 47.2172 41.3994 47.3583 41.5 47.4827C42.2119 48.3643 42.6042 48.85 43.2708 48.85H43.3374L43.4091 48.8417C44.0898 48.7586 44.5514 48.2384 44.8512 47.7016C45.0853 47.8043 45.3387 47.8849 45.6134 47.8849C45.7584 47.8849 45.8997 47.8624 46.0335 47.8185C46.5832 47.6374 46.842 47.193 47.0052 46.7323C47.0519 46.7358 47.099 46.7377 47.1465 46.7377C47.436 46.7377 47.6988 46.6668 47.928 46.5271L48.2052 46.3581L48.3538 46.0644C48.4183 45.9369 48.4703 45.8066 48.5099 45.6744C48.7862 45.5605 49.0185 45.3777 49.1881 45.1362C49.2404 45.0616 49.2856 44.9831 49.3236 44.9014C50.2768 44.8331 50.6085 44.1485 50.7077 43.8532C50.7972 43.5863 50.8192 43.2566 50.7531 42.9059C50.774 42.8914 50.7944 42.8765 50.8142 42.8612C50.9469 42.759 51.3513 42.4473 51.4893 41.8531C51.5973 41.3879 51.5424 40.9321 51.3215 40.4594C51.1479 40.0882 50.9073 39.783 50.6111 39.5545C50.6669 39.2501 50.6621 38.9227 50.5917 38.582C50.5163 38.2164 50.368 37.932 50.1834 37.7089C50.3731 37.3583 50.6832 36.6618 50.2928 35.9674C50.1517 35.7168 49.8197 35.312 49.1252 35.2391C49.1039 35.035 49.0601 34.8404 48.9939 34.6524C48.8029 34.1114 48.3316 33.7619 47.793 33.7619C47.6064 33.7619 47.4204 33.8033 47.2403 33.8853C47.1696 33.9174 47.0786 33.9503 46.9826 33.9851C46.8396 34.0371 46.6776 34.0958 46.5061 34.1774C46.3688 34.2428 46.1869 34.2964 45.9941 34.3532C45.9646 34.3619 45.9345 34.3708 45.9035 34.38C45.9158 34.3602 45.9276 34.3399 45.9387 34.3192C45.9999 34.2057 46.0737 34.0252 46.0876 33.7965C46.1089 33.7771 46.1299 33.7572 46.1504 33.7368C46.2764 33.6105 46.3805 33.4652 46.4607 33.3052C46.8795 33.1214 47.2258 32.7519 47.3658 32.3137C47.3784 32.2743 47.3897 32.2346 47.3996 32.1948C47.7732 32.0519 48.0734 31.7695 48.262 31.3775C48.2999 31.2984 48.3301 31.2158 48.3528 31.1309C48.6581 30.9562 48.899 30.6757 49.0243 30.3365C49.0823 30.18 49.1127 30.019 49.1165 29.8597C49.4732 29.5919 49.6832 29.1547 49.6783 28.6784C49.8128 28.611 49.9551 28.5202 50.093 28.3944C50.3266 28.1809 50.4874 27.9273 50.5698 27.6569C50.7694 27.4281 50.9045 27.1397 50.9538 26.8159C50.9596 26.7778 50.9643 26.7401 50.9678 26.7032C51.2073 26.4422 51.357 26.1692 51.4239 25.8722C51.4716 25.6601 51.505 25.2934 51.3245 24.8864C51.3543 24.8363 51.3809 24.7847 51.4044 24.7317C51.5951 24.5916 51.7903 24.3889 51.9296 24.0878C52.1048 23.7101 52.1271 23.3748 52.0753 23.0928C52.3134 22.9645 52.6304 22.7885 52.9149 22.4824C53.2922 22.0763 53.4343 21.5433 53.3048 21.0203C53.2663 20.8645 53.2065 20.7209 53.1279 20.5914C53.2512 20.4718 53.3735 20.3433 53.4953 20.2051C53.7709 19.8926 53.8743 19.5486 53.936 19.343C54.0568 18.9413 54.005 18.5104 53.7944 18.161C53.7361 18.0642 53.6678 17.9765 53.5905 17.8987C53.6738 17.7614 53.7481 17.6062 53.8057 17.4292C53.9576 16.9626 53.8927 16.4764 53.6276 16.0955C53.5726 16.0164 53.5103 15.9442 53.4424 15.8796C53.4899 15.801 53.5287 15.7303 53.5567 15.6703C53.9609 14.8152 53.6693 14.2875 53.5737 14.1139C53.4983 13.9777 53.4049 13.8556 53.2974 13.75C53.3406 13.6536 53.3814 13.5545 53.4202 13.4528C53.7123 12.6856 53.7276 12.081 53.4669 11.6047C53.2725 11.2498 52.9356 11.0051 52.5424 10.9331L52.5388 10.9325L52.5352 10.9317C52.4884 10.9235 52.4413 10.9171 52.394 10.9126C52.4322 10.7483 52.4627 10.5877 52.4835 10.4322L52.4839 10.4285L52.4843 10.4248C52.5584 9.84186 52.3283 9.28729 51.8838 8.97769C51.6641 8.82456 51.4038 8.74358 51.1309 8.74358C50.8006 8.74358 50.4794 8.86063 50.2266 9.07287C50.194 9.10026 50.1618 9.12822 50.13 9.15661C50.1219 9.09432 50.1123 9.03115 50.1007 8.96741C50.0147 8.49541 49.8547 8.16249 49.6617 7.92895C49.6411 7.64775 49.5698 7.38133 49.4717 7.14113C49.7358 6.69911 49.9277 6.17438 49.941 5.68036C49.9548 5.15954 49.7685 4.70188 49.416 4.39171C49.3256 4.31217 49.2003 4.22438 49.0374 4.16005C49.3198 3.36585 49.2873 2.79041 48.9496 2.35159C48.7026 2.03055 48.3283 1.84627 47.9226 1.84613C47.7773 1.84613 47.6366 1.86815 47.4974 1.90973C47.5037 1.80049 47.5036 1.69488 47.4959 1.59477C47.4453 0.942402 47.0907 0.621218 46.884 0.487789C46.6728 0.351608 46.4282 0.279607 46.1767 0.279607C45.6816 0.279607 45.2628 0.525312 44.8017 1.00571C44.7983 0.994848 44.7952 0.984851 44.7923 0.975579C44.6431 0.494742 44.2981 0.153421 43.8458 0.0392603C43.7428 0.0133278 43.6366 1.18555e-08 43.5301 1.18555e-08H43.5299H43.5294Z" fill="#F9F8FC"/>
<path d="M7.46442 24.5427C7.46845 24.5435 7.4737 24.5447 7.48027 24.5461C7.47476 24.5448 7.47022 24.544 7.46442 24.5427Z" fill="#F9C724"/>
<path d="M7.48027 24.5461C7.55924 24.5629 7.60593 24.5731 7.62936 24.578C7.59289 24.5703 7.51885 24.5544 7.48027 24.5461Z" fill="#F9C724"/>
<path d="M7.4558 24.5408C7.459 24.5415 7.46122 24.5419 7.46442 24.5427C7.45939 24.5416 7.4558 24.5408 7.4558 24.5408Z" fill="#F9C724"/>
<path d="M7.62936 24.578C7.63556 24.5795 7.64047 24.5805 7.64406 24.5812C7.64081 24.5805 7.63577 24.5795 7.62936 24.578Z" fill="#F9C724"/>
<path d="M7.64406 24.5812C7.65119 24.5826 7.65185 24.5829 7.64406 24.5812V24.5812Z" fill="#F9C724"/>
<path d="M48.6784 5.2708C48.2946 4.93295 46.1265 6.53961 46.1265 6.53961C47.2832 5.51955 48.3096 3.39237 48.0607 3.06872C47.8117 2.74507 46.841 3.74166 46.3706 4.17585C45.9 4.61018 43.0173 7.19835 44.3381 6.01096C45.6588 4.82372 46.6866 1.73023 46.2808 1.46859C45.8749 1.20665 44.8754 2.72218 44.019 3.9171C43.1624 5.11202 42.2595 5.88 42.2595 5.88C43.0067 4.9954 44.1935 1.32067 43.5749 1.16449C42.9563 1.00832 41.7274 4.1773 40.7921 5.93998C39.8568 7.70266 37.7252 9.82405 36.3332 11.0902C34.9412 12.3564 33.9854 13.8707 33.4109 14.7767C32.8376 15.681 30.8581 16.7318 30.5043 17.8069C29.8457 19.808 26.1337 24.7274 25.6826 25.3228C25.2315 25.9184 25.1271 25.7647 23.1502 26.6019C21.1732 27.4393 19.3925 27.2754 18.8084 27.186C18.2243 27.0966 17.7933 26.8954 16.1644 25.9878C14.5356 25.0801 10.4243 22.7323 9.96828 22.3742C9.51235 22.0162 8.58063 21.1836 7.08529 20.8379C5.58988 20.4924 4.54296 21.5768 3.8419 22.0371C3.14078 22.4972 1.72844 22.823 1.47922 22.8896C1.23001 22.9561 0.721353 23.7895 1.74854 23.8418C2.77569 23.8939 5.27469 24.372 5.27469 24.372C5.27469 24.372 5.5606 23.9494 6.05102 23.2905C6.51839 22.6626 6.68438 21.8148 7.39435 22.0655C8.10442 22.3161 8.18741 23.9078 7.4558 24.5408C7.4558 24.5408 10.1216 25.0202 12.2101 26.405C13.7793 27.4456 14.8447 28.5941 15.9168 29.6234C17.7039 31.3387 19.0075 32.7225 19.0075 32.7225C18.798 32.9678 17.3562 34.5145 14.4219 36.3302C13.1928 37.0908 11.3052 39.7147 8.9359 41.6478C6.56652 43.5809 4.38139 43.9758 4.09228 44.3368C3.80323 44.6978 4.22457 44.6556 5.31415 44.5764C6.40384 44.4972 8.32119 43.7254 8.32119 43.7254C7.67009 44.3007 5.60702 44.9559 5.61692 45.2719C5.62681 45.5879 6.28244 45.558 7.1148 45.4293C7.94721 45.3003 9.33138 44.6074 9.33138 44.6074C8.54008 45.4371 7.97229 45.6275 7.85184 45.9078C7.73143 46.1882 8.31539 46.2103 8.85836 46.1295C9.40133 46.0489 10.4212 45.4513 10.4212 45.4513C10.4212 45.4513 9.8323 46.1118 10.1435 46.272C10.4546 46.4319 11.6685 45.5559 11.9757 45.4428C12.2829 45.3299 12.2653 45.4827 12.585 45.5537C12.9048 45.6247 13.087 45.481 13.4098 45.4323C13.7326 45.3836 13.6167 45.4842 14.0141 45.3521C14.4115 45.2199 15.2418 45.101 15.8631 44.9644C16.4844 44.8276 17.2443 44.7717 17.2443 44.7717C17.3774 44.6825 17.5135 44.5971 17.6435 44.5031C17.8519 44.3523 18.0755 44.2169 18.2699 44.0553C18.4809 43.8797 18.7255 43.769 18.9386 43.6024C19.0949 43.4803 19.2921 43.4131 19.4492 43.292C19.7018 43.0975 19.9845 42.9483 20.2564 42.7992C20.5657 42.6297 20.8681 42.4449 21.1748 42.2712C21.513 42.0795 21.85 41.8813 22.1688 41.652C22.4873 41.4229 22.8257 41.2223 23.1612 41.0193C23.2217 40.9828 23.2531 40.9234 23.3194 40.8868C23.4932 40.7906 23.661 40.6777 23.8203 40.5521C24.0559 40.3667 24.3079 40.2029 24.5495 40.0252C24.7856 39.8515 25.0175 39.6716 25.2513 39.4945C25.1074 39.4813 24.3567 39.3165 24.0974 39.2826C23.557 39.212 23.0168 39.1736 22.4778 39.2714C22.1602 39.3289 21.8718 39.4602 21.6818 39.7491C21.5853 39.8958 21.5331 39.9026 21.4211 39.758C21.2617 39.5523 21.1582 39.3127 21.065 39.0721C20.9838 38.8621 20.9513 38.6367 20.9685 38.4082C21.0021 37.9645 21.2187 37.6258 21.5507 37.3549C21.6019 37.3131 21.6541 37.29 21.6365 37.1926C21.5672 36.811 21.7167 36.5033 21.9804 36.2451C22.2294 36.001 22.5323 35.8454 22.849 35.7208C23.7511 35.366 24.7014 35.273 25.6536 35.1961C26.5263 35.1254 27.399 35.0547 28.2459 34.8073C28.6295 34.6951 29.0143 34.585 29.3766 34.407C29.6346 34.2801 29.8908 34.1516 30.1225 33.9771C30.4151 33.7569 30.6903 33.517 30.9315 33.2386C31.0349 33.1192 31.1283 32.9821 31.2348 32.8748C31.593 32.5138 31.8937 32.1129 32.1709 31.6862C32.3863 31.3545 32.5739 31.0046 32.7704 30.6633C32.9457 30.3586 33.1051 30.0377 33.2666 29.7215C33.3811 29.4972 33.5027 29.2767 33.6166 29.0524C33.6871 28.9135 33.726 28.7507 33.82 28.633C34.025 28.3766 34.1311 28.0635 34.2727 27.7793C34.4567 27.4101 34.6631 27.0501 34.8285 26.6691C34.9792 26.3223 35.1686 25.993 35.3396 25.6553C35.4884 25.3613 35.6317 25.0645 35.7846 24.7727C35.9213 24.5119 36.0639 24.2541 36.2123 24.0001C36.2709 23.8998 36.3253 23.7853 36.4028 23.7092C36.6106 23.5049 36.7494 23.2468 36.936 23.026C37.0802 22.8555 37.2387 22.6925 37.3738 22.5091C37.54 22.2833 37.7671 22.0995 37.9486 21.887C38.1926 21.6013 38.4574 21.3351 38.7167 21.0694C39.0308 20.7475 39.3524 20.431 39.6682 20.1091C39.8828 19.89 40.097 19.67 40.3042 19.4437C40.6631 19.0519 41.0234 18.6612 41.3697 18.2582C41.6185 17.9686 41.8566 17.6678 42.0894 17.3653C42.2333 17.1783 42.3756 16.9859 42.5103 16.7891C42.7372 16.457 42.9559 16.1187 43.1901 15.791C43.3619 15.5508 43.5111 15.2817 43.6423 15.0143C43.8065 14.6802 44.0088 14.3721 44.1964 14.0552C44.351 13.7942 44.5132 13.5334 44.6584 13.2693C44.8577 12.9065 45.1132 12.5727 45.2463 12.1714C45.3088 11.9834 45.3904 11.8008 45.4548 11.6143C45.6087 11.168 45.7 10.7018 45.8544 10.2542C46.016 9.78595 46.2045 7.87274 46.4341 7.75293C46.8199 7.55155 46.974 8.38892 47.0042 8.49903C47.3099 9.58312 46.8991 11.6379 46.8571 11.8082C47.1233 11.2408 47.5098 10.4043 47.7476 9.87736C47.8838 9.58472 47.9488 9.26063 48.1031 8.97016C48.1873 8.81152 48.2273 8.63072 48.4184 8.56408C48.81 7.81551 48.0888 7.04681 48.0888 7.04681C48.5266 6.70245 49.0624 5.6085 48.6784 5.2708Z" fill="#20112C"/>
<path d="M5.92796 22.5666C5.76859 22.5666 5.63934 22.4342 5.63934 22.271C5.63934 22.1078 5.76859 21.9755 5.92796 21.9755C6.08737 21.9755 6.21652 22.1078 6.21652 22.271C6.21652 22.4342 6.08737 22.5666 5.92796 22.5666Z" fill="#F9F8FC"/>
<path d="M52.6379 18.6502C52.5062 18.6276 52.371 18.6457 52.235 18.6644C52.0253 18.6934 51.8303 18.7668 51.6283 18.8178C51.3655 18.8842 51.0992 18.937 50.833 18.9875C50.6583 19.0206 50.4809 19.0392 50.3048 19.0642C50.6671 18.8865 51.0022 18.6732 51.3353 18.4551C51.636 18.258 51.9105 18.0301 52.1753 17.7854C52.403 17.5749 52.6303 17.3753 52.7321 17.0625C52.8013 16.8501 52.7014 16.6666 52.4929 16.6646C52.1299 16.6606 51.789 16.7503 51.4583 16.9023C51.3314 16.9607 51.1864 16.9773 51.0297 17.0183C51.3204 16.8216 52.3434 15.581 52.5365 15.1689C52.601 15.0324 52.6833 14.8562 52.5886 14.6846C52.4658 14.4623 52.1892 14.3938 51.9572 14.5427C51.7163 14.6975 51.1391 14.982 51.1356 14.9726C51.1234 14.9384 51.6606 14.2273 51.7852 14.07C52.0353 13.7545 52.2217 13.4101 52.3658 13.0317C52.4389 12.8399 52.6845 12.1364 52.3433 12.0741C52.0967 12.0305 51.8793 12.1315 51.7145 12.2823C51.3813 12.5872 51.024 12.8616 50.6834 13.1561C50.5085 13.3072 50.109 13.6432 50.0851 13.6195C50.0679 13.6021 51.1909 11.5583 51.3621 10.2753C51.3788 10.1445 51.3498 10.0075 51.2472 9.93589C51.1605 9.87547 51.0222 9.90358 50.9442 9.96921C50.7235 10.1545 50.5266 10.3691 50.3552 10.6032C50.2791 10.7072 50.1824 10.7888 50.1062 10.8928C49.9281 11.1354 49.7336 11.3656 49.5405 11.596C49.3531 11.8195 49.1452 12.0266 48.9722 12.261C48.8387 12.4418 48.5116 12.6794 48.5252 12.6413C48.6716 12.2305 48.7602 11.8029 48.8657 11.3809C48.9524 11.0345 49.0113 10.6775 49.0199 10.3194C49.0291 9.9398 49.0568 9.55675 48.9882 9.17994C48.9217 8.81485 48.8261 8.52221 48.4184 8.56408C48.2273 8.63072 48.1873 8.81152 48.1031 8.97016C47.9488 9.26063 47.8838 9.58472 47.7476 9.87736C47.5098 10.4043 47.1233 11.2408 46.8571 11.8082C46.8991 11.6379 47.3099 9.58312 47.0042 8.49903C46.974 8.38892 46.8199 7.55155 46.4341 7.75293C46.2045 7.87274 46.016 9.78595 45.8544 10.2542C45.7 10.7018 45.6087 11.168 45.4548 11.6143C45.3904 11.8008 45.3088 11.9834 45.2463 12.1714C45.1132 12.5727 44.8577 12.9065 44.6584 13.2693C44.5132 13.5334 44.351 13.7942 44.1964 14.0552C44.0088 14.3721 43.8065 14.6802 43.6423 15.0143C43.5111 15.2817 43.3619 15.5508 43.1901 15.791C42.9559 16.1187 42.7372 16.457 42.5103 16.7891C42.3756 16.9859 42.2333 17.1783 42.0894 17.3653C41.8566 17.6678 41.6185 17.9686 41.3697 18.2582C41.0234 18.6612 40.6631 19.0519 40.3042 19.4437C40.097 19.67 39.8828 19.89 39.6682 20.1091C39.3524 20.431 39.0308 20.7475 38.7167 21.0694C38.4574 21.3351 38.1926 21.6013 37.9486 21.887C37.7671 22.0995 37.54 22.2833 37.3738 22.5091C37.2387 22.6925 37.0802 22.8555 36.936 23.026C36.7494 23.2468 36.6106 23.5049 36.4028 23.7092C36.3253 23.7853 36.2709 23.8998 36.2123 24.0001C36.0639 24.2541 35.9213 24.5119 35.7846 24.7727C35.6317 25.0645 35.4884 25.3613 35.3396 25.6553C35.1686 25.993 34.9792 26.3223 34.8285 26.6691C34.6631 27.0501 34.4567 27.4101 34.2727 27.7793C34.1311 28.0635 34.025 28.3766 33.82 28.633C33.726 28.7507 33.6871 28.9135 33.6166 29.0524C33.5027 29.2767 33.3811 29.4972 33.2666 29.7215C33.1051 30.0377 32.9457 30.3586 32.7704 30.6633C32.5739 31.0046 32.3863 31.3545 32.1709 31.6862C31.8937 32.1129 31.593 32.5138 31.2348 32.8748C31.1283 32.9821 31.0349 33.1192 30.9315 33.2386C30.6903 33.517 30.4151 33.7569 30.1225 33.9771C29.8908 34.1516 29.6346 34.2801 29.3766 34.407C29.0143 34.585 28.6295 34.6951 28.2459 34.8073C27.399 35.0547 26.5263 35.1254 25.6536 35.1961C24.7014 35.273 23.7511 35.366 22.849 35.7208C22.5323 35.8454 22.2294 36.001 21.9804 36.2451C21.7167 36.5033 21.5672 36.811 21.6365 37.1926C21.6541 37.29 21.6019 37.3131 21.5507 37.3549C21.2187 37.6258 21.0021 37.9645 20.9685 38.4082C20.9513 38.6367 20.9838 38.8621 21.065 39.0721C21.1582 39.3127 21.2617 39.5523 21.4211 39.758C21.5331 39.9026 21.5853 39.8958 21.6818 39.7491C21.8718 39.4602 22.1602 39.3289 22.4778 39.2714C23.0168 39.1736 23.557 39.212 24.0974 39.2826C24.3567 39.3165 25.1074 39.4813 25.2513 39.4945C25.0175 39.6716 24.7856 39.8515 24.5495 40.0252C24.3079 40.2029 24.0559 40.3667 23.8203 40.5521C23.661 40.6777 23.4932 40.7906 23.3194 40.8868C23.2531 40.9234 23.2217 40.9828 23.1612 41.0193C22.8257 41.2223 22.4873 41.4229 22.1688 41.652C21.85 41.8813 21.513 42.0795 21.1748 42.2712C20.8681 42.4449 20.5657 42.6297 20.2564 42.7992C19.9845 42.9483 19.7018 43.0975 19.4492 43.292C19.2921 43.4131 19.0949 43.4803 18.9386 43.6024C18.7255 43.769 18.4809 43.8797 18.2699 44.0553C18.0755 44.2169 17.8519 44.3523 17.6435 44.5031C17.5135 44.5971 17.3774 44.6825 17.2443 44.7717C17.0402 44.982 16.7886 45.1283 16.5598 45.305C16.1791 45.5986 15.8094 45.9067 15.4276 46.1993C15.0883 46.4592 14.7457 46.7157 14.4125 46.9847C14.3651 47.0229 12.6643 48.3372 10.8722 49.2862C10.4932 49.4887 7.89582 50.5113 7.45204 50.6638C7.21692 50.7449 5.51932 51.1963 5.25712 51.3807C4.88993 51.5889 5.14219 51.7119 5.30227 51.7378C5.46241 51.7639 7.2341 51.7481 8.39426 51.6411C9.5544 51.5341 10.8678 51.2507 11.0468 51.1944C11.0468 51.1944 10.0845 51.7624 8.97545 52.1475C7.86625 52.5324 7.05916 52.6615 6.986 52.9643C6.91294 53.2671 9.45123 53.5659 12.3158 52.3566C12.3158 52.3566 11.4689 53.0208 10.9708 53.3252C10.4727 53.6297 9.60021 53.9657 9.65017 54.1584C9.70006 54.351 11.4417 54.6904 13.2994 53.6414C13.2994 53.6414 12.3388 54.4655 12.6188 54.7875C12.8989 55.1099 15.2624 53.8711 15.535 53.8356C15.8073 53.8001 15.2205 54.4097 15.5244 54.3831C15.7646 54.3622 17.1805 53.7543 17.422 53.739C17.6235 53.726 17.332 54.2698 17.5392 54.2802C18.5124 54.3295 19.9162 53.6156 20.2994 53.4099C20.5579 53.2712 21.0189 52.8523 21.0428 52.8761C21.0601 52.8933 21.0256 53.1881 21.1382 53.271C21.253 53.3556 21.3711 53.292 21.4666 53.2322C21.8709 52.9786 22.1389 52.5818 22.4416 52.2237C22.5931 52.0447 22.6824 51.8159 22.8473 51.6454C22.9629 51.7365 23.0782 51.8279 23.194 51.9185C23.2529 51.9644 23.324 51.9606 23.3888 51.9499C23.5839 51.918 23.7381 51.8259 23.8405 51.6403C23.8955 51.5407 23.9382 51.4375 23.9821 51.3339C24.0114 51.2651 24.0391 51.2388 24.1298 51.2496C24.3051 51.2709 24.5041 51.2999 24.6523 51.19C24.8655 51.0321 25.0431 50.8328 25.1264 50.5594C25.206 50.2973 25.3636 50.2174 25.6242 50.2785C25.8402 50.3292 26.0623 50.3395 26.2779 50.3126C26.5752 50.2752 26.7478 50.0399 26.8828 49.7991C27.002 49.5863 27.0461 49.5434 27.2736 49.6219C27.3103 49.6347 27.3477 49.6461 27.3833 49.6619C27.6577 49.7846 27.9028 49.7189 28.1435 49.557C28.3765 49.4003 28.5292 49.1738 28.685 48.9484C28.7353 48.8755 28.7865 48.8164 28.8844 48.8222C29.1849 48.8405 29.6237 48.4777 29.6828 48.1538C29.7383 47.8491 29.8076 47.8148 30.1133 47.8148C30.1415 47.8148 30.1698 47.8158 30.1981 47.8144C30.6578 47.7946 31.0441 47.5692 31.2034 47.0585C31.2238 46.9929 31.2637 46.9505 31.3351 46.9457C31.6403 46.925 31.9 46.8095 32.1406 46.6081C32.3446 46.4375 32.5423 46.2449 32.5992 46.0012C32.6793 45.6586 32.9423 45.546 33.1716 45.3872C33.3915 45.2353 33.5377 45.0355 33.6479 44.7973C33.6978 44.6895 33.6926 44.5357 33.8062 44.4835C33.9127 44.4347 34.0179 44.3786 34.1293 44.3385C34.403 44.2399 34.6296 44.0676 34.8431 43.8694C34.991 43.7324 35.1413 43.5709 35.3471 43.545C35.8726 43.4784 36.2931 43.1642 36.7279 42.9108C37.0069 42.7481 37.238 42.6968 37.512 42.8258C37.8278 42.9741 38.1285 43.1504 38.4154 43.3536C38.5586 43.4552 38.75 43.4929 38.8777 43.6079C39.0869 43.7962 39.3353 43.9229 39.561 44.0787C39.7942 44.24 40.0143 44.4159 40.2237 44.6013C40.451 44.8024 40.6726 45.0167 40.8993 45.2162C41.0711 45.3673 41.2374 45.5318 41.4056 45.6855C41.6382 45.8981 41.8529 46.1396 42.0672 46.3762C42.3216 46.6569 43.1009 47.712 43.2762 47.6907C43.7701 47.6305 44.1239 46.5529 44.1773 46.3665C44.1948 46.3054 44.1964 46.2113 44.2875 46.2167C44.7135 46.2414 45.3981 46.8104 45.6871 46.7151C45.9536 46.6272 46.0395 45.872 46.2477 45.321C46.5008 45.4017 47.0866 45.6914 47.3491 45.5314C47.4913 45.2498 47.5182 44.9545 47.3927 44.651C47.5477 44.651 47.7067 44.6607 47.8642 44.649C48.197 44.6242 48.416 44.4349 48.3146 44.0298C48.2829 43.9036 48.2574 43.776 48.225 43.6298C48.561 43.7431 48.8886 43.7621 49.2194 43.7465C49.4074 43.7379 49.5654 43.6909 49.6374 43.4762C49.6967 43.2993 49.6737 42.6925 49.0028 42.1645C49.415 42.1986 49.9555 42.0725 50.1336 41.9352C50.2434 41.8506 50.3499 41.7498 50.3884 41.5848C50.4413 41.3566 50.3941 41.1595 50.3007 40.9598C50.1567 40.6518 49.9312 40.4229 49.6208 40.3128C49.4071 40.237 49.2223 40.1031 48.9584 40.0476C49.477 39.7604 49.5824 39.2963 49.4845 38.8214C49.3689 38.2611 48.8616 38.131 48.3942 37.9942C48.4368 37.9596 48.9714 37.5486 49.1188 37.281C49.2436 37.0546 49.7678 36.2367 48.6166 36.4109C48.3623 36.4133 48.1079 36.4115 47.8483 36.4115C47.8944 36.192 47.9724 35.99 47.9956 35.7742C48.0222 35.526 48.0123 35.281 47.9295 35.0463C47.8949 34.9482 47.8336 34.8836 47.6989 34.9446C47.4655 35.0508 47.2167 35.1173 46.983 35.2284C46.6251 35.3988 46.2338 35.4721 45.8629 35.6087C45.5049 35.7407 45.1231 35.7956 44.7547 35.8947C44.4592 35.9741 44.1625 36.0462 43.8619 36.0951C43.5487 36.146 43.2305 36.1631 42.9161 36.2069C42.4605 36.2705 42.0037 36.2805 41.5425 36.2586C41.9019 36.1788 42.2101 35.9944 42.5079 35.7863C42.5369 35.7659 42.5754 35.7466 42.5703 35.7136C42.5332 35.4718 42.6959 35.5154 42.8352 35.5053C43.0422 35.4899 43.2514 35.414 43.3414 35.2277C43.4091 35.0872 43.4445 35.0824 43.5779 35.1115C43.9161 35.1857 44.1162 35.0415 44.0654 34.6844C44.0553 34.6146 44.0314 34.5468 44.0132 34.4748C44.1674 34.4551 44.3118 34.4016 44.3657 34.2536C44.4238 34.0938 44.3165 33.9561 44.231 33.8279C44.2826 33.7973 44.3214 33.8014 44.36 33.8115C44.52 33.854 44.6766 33.8379 44.8392 33.8139C44.9741 33.7939 44.9724 33.723 44.9363 33.6397C44.8542 33.4498 44.7846 33.2529 44.6659 33.0738C44.7483 33.0738 44.8274 33.074 44.9065 33.0738C45.2883 33.0734 45.5254 32.84 45.5247 32.4509C45.5244 32.3376 45.5537 32.2956 45.666 32.307C45.7546 32.3162 45.8434 32.2834 45.9291 32.2669C46.0996 32.2337 46.2477 32.0861 46.2901 31.9531C46.3507 31.7638 46.3435 31.533 46.2098 31.3417C46.17 31.2849 46.0801 31.1711 46.0801 31.1711C46.3576 31.1392 46.6373 31.1806 46.9152 31.1328C47.087 31.1033 47.1826 30.9985 47.2467 30.8654C47.3171 30.7186 47.2449 30.4396 47.132 30.3589C47.0683 30.3133 47.0144 30.2663 46.9766 30.1882C47.0604 30.1882 47.1386 30.1891 47.2171 30.1881C47.3849 30.1861 47.553 30.2006 47.7186 30.1538C47.9181 30.0974 48.0509 29.865 47.9498 29.706C47.8786 29.5943 47.8332 29.4623 47.6958 29.3881C47.6108 29.3422 47.5214 29.2747 47.4367 29.2035C47.6165 29.1246 47.8025 29.1411 47.979 29.0897C48.1318 29.0453 48.2876 29.02 48.4286 28.9373C48.5722 28.8532 48.5928 28.5629 48.446 28.4924C48.3011 28.4228 48.2164 28.2677 48.0305 28.2391C48.2464 28.152 48.4307 28.0663 48.5645 27.8966C48.6138 27.8343 48.6793 27.8059 48.7591 27.7794C48.9575 27.7137 49.1694 27.685 49.3399 27.5292C49.4746 27.4064 49.5473 27.2634 49.4698 27.0884C49.4437 27.0296 49.4548 27.0338 49.5019 27.021C49.694 26.969 49.8062 26.8312 49.8356 26.6375C49.864 26.4509 49.8393 26.2719 49.6491 26.1708C49.8028 26.1114 49.9513 26.099 50.081 25.9731C50.3281 25.7331 50.4358 25.5029 50.1964 25.2127C50.0674 25.0564 50.0759 24.9428 50.1062 24.7784C50.1365 24.6141 50.1766 24.465 50.3031 24.35C50.403 24.2593 50.4161 24.1205 50.3659 24.0243C50.3222 23.9411 50.3656 23.9739 50.3975 23.96C50.5927 23.8748 50.8022 23.818 50.9071 23.5913C50.9728 23.4496 51.0087 23.3193 50.8919 23.1413C50.775 22.9632 50.0257 22.7813 49.8393 22.7284C49.9748 22.6599 50.1082 22.6242 50.2379 22.5831C50.6255 22.4604 51.0176 22.3627 51.3789 22.1595C51.63 22.0182 51.8895 21.9048 52.095 21.6834C52.207 21.5629 52.241 21.4386 52.2079 21.305C52.1768 21.179 52.0729 21.0009 51.6965 21.0086C51.1656 21.0115 50.6347 21.0101 50.1038 21.0101C50.4613 20.9068 50.8008 20.7701 51.1284 20.6059C51.3479 20.4957 51.5557 20.3642 51.7627 20.2273C52.1021 20.0026 52.3888 19.7307 52.6553 19.4283C52.7624 19.3069 52.809 19.1529 52.8544 19.0021C52.8921 18.8763 52.8607 18.6884 52.6379 18.6502Z" fill="#F9C724"/>
<path d="M25.104 36.6548C24.7232 36.761 24.342 36.8652 23.9605 36.9683C23.8712 36.9924 23.7962 37.0208 23.7665 37.1287C23.7365 37.2377 23.6545 37.314 23.5638 37.3768C23.5286 37.4011 23.4928 37.4482 23.4481 37.3946C23.4073 37.3457 23.4199 37.3021 23.4656 37.26C23.5777 37.1564 23.6007 37.0251 23.569 36.8798C23.5564 36.8222 23.5451 36.7635 23.4615 36.7852C23.3856 36.8051 23.4065 36.8498 23.4198 36.9036C23.4465 37.012 23.4362 37.1122 23.3285 37.1752C23.2152 37.2414 23.1117 37.2294 23.0234 37.129C22.9934 37.095 22.9711 37.0706 22.9303 37.1154C22.8962 37.1528 22.9008 37.1825 22.9298 37.2198C22.9896 37.2975 23.0715 37.3336 23.1616 37.3511C23.2108 37.3605 23.252 37.3701 23.2455 37.4334C23.2393 37.4957 23.1868 37.5003 23.1431 37.5003C23.1206 37.501 23.095 37.4948 23.0759 37.4855C22.8556 37.3785 22.6268 37.3023 22.3857 37.2611C22.3404 37.2535 22.2803 37.2206 22.2947 37.1547C22.312 37.0751 22.3782 37.1145 22.4214 37.1203C22.5556 37.138 22.6617 37.0787 22.766 37.0059C22.9664 36.8659 23.1637 36.7206 23.37 36.5902C23.5914 36.4501 23.8326 36.376 24.0971 36.4278C24.1775 36.4435 24.236 36.4685 24.1401 36.5537C24.0856 36.602 24.0316 36.6544 24.0105 36.7515C24.378 36.6806 24.7262 36.612 25.0749 36.5473C25.1288 36.5373 25.2113 36.4756 25.2323 36.5676C25.2458 36.6263 25.1559 36.6404 25.104 36.6548Z" fill="#F9F8FC"/>
</g>
</g>
</svg>
