<svg width="400" height="406" viewBox="0 0 400 406" fill="none" xmlns="http://www.w3.org/2000/svg">
<path d="M322.44 8.575e-08C313.838 -0.00104778 309.196 9.60155 300.768 27.0317C298.642 31.4306 296.633 35.5833 294.798 38.9605C289.96 47.8632 278.576 60.6157 263.568 73.9476C252.486 83.7912 245.014 95.2957 240.551 102.17L240.457 102.314C239.378 103.976 235.769 106.882 232.869 109.217C226.689 114.192 220.299 119.337 218.014 126.119C214.9 135.361 198.493 158.845 183.618 178.019C183.034 178.773 182.84 178.931 182.833 178.937C182.448 179.214 180.566 179.911 178.745 180.584C176.323 181.48 173.005 182.709 168.278 184.664C160.018 188.08 152.29 188.796 147.261 188.796C144.067 188.796 141.693 188.513 140.561 188.344C137.747 187.924 135.337 186.912 123.743 180.604C108.964 172.563 81.8946 157.342 78.9114 155.157C78.661 154.965 78.3552 154.725 78.0232 154.464C74.2046 151.468 66.2585 145.234 54.3285 142.543C52.3036 142.086 50.2479 141.853 48.2193 141.853C38.4034 141.852 31.1989 147.102 26.4316 150.576C25.4983 151.256 24.6175 151.897 23.9355 152.334C22.3359 153.359 18.5758 155.04 9.74683 157.22C9.35798 157.317 9.05098 157.393 8.84182 157.448C3.58 158.82 -0.52631 164.97 0.0549258 170.61C0.513366 175.055 4.05727 180.397 12.5364 180.817C18.2279 181.1 32.1457 183.52 37.3207 184.482C38.4665 184.752 42.3492 185.587 46.4854 185.587C47.713 185.587 48.7187 185.552 49.6065 185.521C50.1976 185.501 50.74 185.48 51.2749 185.48C51.985 185.48 52.6068 185.518 53.5098 185.706L53.6433 185.735L53.7779 185.759C53.9502 185.789 72.0996 189.094 85.8891 198.022C94.8324 203.812 101.507 210.201 107.962 216.38C109.377 217.733 110.773 219.07 112.171 220.38C118.967 226.75 124.841 232.515 128.895 236.562C123.85 241.037 115.245 247.894 102.494 255.598C97.0845 258.866 91.3474 264.901 84.0837 272.542C77.2468 279.732 69.4978 287.883 60.968 294.678C50.25 303.216 40.2266 307.172 33.5935 309.79C28.8118 311.676 25.9256 312.815 23.8316 315.369C20.0417 319.99 21.3801 324.182 22.1317 325.771C23.834 329.368 27.285 331.192 32.3904 331.192C32.8964 331.192 33.4383 331.179 34.0195 331.157C35.2197 334.038 38.236 337.633 45.8129 337.633C47.2784 337.633 48.9557 337.52 50.9676 337.281C51.0289 337.384 51.0928 337.488 51.1595 337.589C54.2531 342.33 59.993 342.33 61.8787 342.33C63.39 342.33 65.0989 342.198 66.8213 341.947C67.782 341.808 68.8119 341.558 69.8663 341.237C70.3333 341.589 70.8368 341.903 71.373 342.172C72.7376 342.858 74.2419 343.206 75.8432 343.206C79.8197 343.206 83.7394 341.104 89.2644 337.898C89.5562 337.729 89.8821 337.539 90.2034 337.356C90.5828 337.471 90.997 337.581 91.4441 337.679C92.4555 337.898 93.48 338.01 94.4886 338.01C94.6241 338.01 94.7575 338.008 94.8897 338.003C90.1669 341.226 83.5024 345.512 76.6847 349.037C74.2497 350.274 55.9531 357.352 52.5299 358.502C52.2147 358.605 50.9245 358.968 49.7854 359.288C40.1087 362.011 36.683 363.165 34.6016 364.457C28.6308 367.925 29.0242 373.107 29.2923 374.631C30.0058 378.685 33.408 381.772 37.9613 382.495C38.5921 382.595 39.3686 382.678 42.495 382.678C42.7614 382.678 43.0533 382.678 43.3672 382.676C43.242 384.801 43.8952 386.909 45.2497 388.639C46.9913 390.864 50.3625 393.418 61.0659 393.418C61.7269 393.418 62.4617 393.407 63.2652 393.38C63.3019 393.561 63.3412 393.727 63.3805 393.874C64.7453 399.015 69.9612 401.623 78.8832 401.623C80.7481 401.623 83.3738 401.487 86.5035 400.955C86.7213 401.264 86.9571 401.563 87.2112 401.849C88.2738 403.041 90.6663 405.044 94.7526 405.044C98.6035 405.044 103.643 403.196 110.152 400.445C111.531 401.281 113.149 401.738 114.86 401.738C115.138 401.738 115.421 401.726 115.702 401.702C117.51 401.548 119.341 400.927 124.387 399.067C125.834 400.205 127.621 400.885 129.506 400.977C129.88 400.996 130.263 401.005 130.648 401.005C139.122 401.005 149.077 396.45 154.258 393.734C154.368 393.678 154.479 393.617 154.589 393.555C155.514 393.839 156.481 393.985 157.465 393.985C160.125 393.985 162.12 392.95 163.389 392.173C166.954 389.991 169.373 387.063 171.318 384.712C171.475 384.521 171.633 384.332 171.79 384.141C172.096 384.168 172.405 384.182 172.717 384.182C173.32 384.182 173.927 384.131 174.577 384.028C178.074 383.468 181.02 381.694 183.024 378.978C184.681 378.66 186.187 378.012 187.523 377.046C189.408 375.683 190.941 374.122 192.113 372.379C192.384 372.389 192.656 372.395 192.927 372.395C193.841 372.395 194.764 372.338 195.672 372.227C198.791 371.844 201.502 370.423 203.768 367.991C204.157 368.026 204.548 368.043 204.94 368.043C207.714 368.043 210.451 367.171 213.071 365.449C215.153 364.083 216.668 362.425 217.843 360.91C221.371 359.778 224.617 357.165 226.526 353.949C231.063 353.152 234.79 350.721 237.179 347.05C239.385 346.326 241.459 345.175 243.381 343.605C245.506 341.87 248.013 339.476 249.245 335.979C249.274 335.961 249.304 335.943 249.331 335.924C249.694 335.697 250.056 335.469 250.408 335.229C252.987 333.486 254.985 331.202 256.495 328.26C259.726 326.939 262.144 324.95 263.724 323.519L264.119 323.156C264.152 323.127 264.186 323.095 264.222 323.063C268.5 322.246 271.855 320.241 274.603 318.598C274.946 318.393 275.291 318.187 275.635 317.985C277.061 318.712 278.454 319.544 279.789 320.466C280.942 321.265 282.052 321.746 282.787 322.064C282.84 322.087 282.891 322.109 282.945 322.132C284.36 323.3 285.783 324.17 286.951 324.883C287.466 325.198 287.953 325.495 288.357 325.769C289.721 326.689 291.067 327.725 292.472 328.939C293.241 329.605 294.001 330.291 294.76 330.977C295.641 331.772 296.551 332.593 297.496 333.404C298.143 333.96 298.813 334.577 299.522 335.23C300.056 335.724 300.591 336.216 301.127 336.695C302.409 337.839 303.699 339.231 305.064 340.705L305.462 341.135C305.818 341.518 306.662 342.539 307.407 343.439C312.681 349.815 315.587 353.328 320.524 353.328H321.018L321.549 353.268C326.591 352.667 330.011 348.904 332.231 345.022C333.965 345.765 335.842 346.348 337.877 346.348C338.951 346.348 339.998 346.185 340.989 345.868C345.061 344.558 346.978 341.343 348.187 338.011C348.533 338.036 348.882 338.05 349.234 338.05C351.378 338.05 353.324 337.537 355.022 336.527L357.076 335.304L358.176 333.18C358.654 332.258 359.039 331.316 359.333 330.359C361.379 329.536 363.1 328.213 364.356 326.467C364.744 325.927 365.078 325.359 365.36 324.768C372.421 324.274 374.878 319.322 375.612 317.187C376.276 315.257 376.438 312.872 375.949 310.335C376.104 310.23 376.255 310.122 376.402 310.012C377.384 309.272 380.38 307.018 381.402 302.72C382.202 299.355 381.796 296.059 380.159 292.64C378.873 289.955 377.091 287.747 374.897 286.095C375.311 283.893 375.275 281.525 374.753 279.06C374.195 276.417 373.097 274.36 371.729 272.746C373.134 270.21 375.431 265.172 372.539 260.15C371.494 258.337 369.035 255.409 363.89 254.882C363.733 253.405 363.408 251.998 362.918 250.638C361.503 246.725 358.012 244.197 354.022 244.197C352.64 244.197 351.262 244.497 349.928 245.09C349.404 245.322 348.731 245.56 348.019 245.812C346.96 246.188 345.76 246.612 344.49 247.202C343.472 247.676 342.125 248.063 340.697 248.474C340.479 248.537 340.256 248.601 340.026 248.668C340.117 248.525 340.204 248.378 340.287 248.228C340.74 247.408 341.287 246.102 341.389 244.447C341.548 244.307 341.703 244.163 341.855 244.016C342.788 243.102 343.559 242.051 344.154 240.894C347.255 239.564 349.82 236.892 350.858 233.722C350.951 233.437 351.035 233.15 351.108 232.862C353.876 231.829 356.099 229.787 357.496 226.951C357.777 226.379 358.001 225.782 358.169 225.168C360.43 223.904 362.215 221.875 363.143 219.421C363.573 218.29 363.798 217.125 363.826 215.973C366.468 214.036 368.024 210.874 367.987 207.428C368.984 206.941 370.038 206.284 371.06 205.375C372.79 203.83 373.981 201.996 374.591 200.04C376.069 198.385 377.07 196.299 377.436 193.957C377.479 193.682 377.513 193.409 377.539 193.142C379.314 191.255 380.422 189.279 380.918 187.131C381.271 185.597 381.518 182.945 380.181 180.002C380.402 179.639 380.599 179.266 380.773 178.883C382.186 177.869 383.632 176.403 384.664 174.225C385.961 171.493 386.127 169.068 385.743 167.028C387.507 166.101 389.855 164.828 391.962 162.613C394.757 159.676 395.81 155.821 394.85 152.038C394.565 150.911 394.122 149.873 393.54 148.936C394.453 148.071 395.359 147.142 396.262 146.142C398.303 143.882 399.069 141.393 399.526 139.906C400.421 137.001 400.037 133.884 398.477 131.357C398.045 130.657 397.539 130.023 396.967 129.46C397.584 128.467 398.134 127.345 398.561 126.064C399.686 122.689 399.205 119.172 397.241 116.417C396.834 115.845 396.373 115.323 395.87 114.856C396.222 114.287 396.509 113.776 396.716 113.342C399.71 107.157 397.551 103.34 396.842 102.085C396.284 101.1 395.592 100.216 394.796 99.4526C395.115 98.7557 395.418 98.039 395.705 97.3034C397.869 91.7539 397.982 87.3812 396.051 83.9358C394.611 81.3686 392.115 79.5987 389.203 79.0779L389.176 79.0737L389.15 79.0685C388.803 79.0088 388.454 78.9627 388.104 78.9302C388.387 77.7419 388.612 76.5798 388.766 75.4555L388.769 75.4282L388.773 75.402C389.322 71.1854 387.617 67.1742 384.324 64.9349C382.697 63.8274 380.769 63.2416 378.748 63.2416C376.301 63.2416 373.921 64.0883 372.049 65.6234C371.808 65.8214 371.569 66.0237 371.333 66.2291C371.273 65.7785 371.202 65.3216 371.116 64.8605C370.479 61.4466 369.294 59.0386 367.865 57.3495C367.712 55.3156 367.183 53.3886 366.457 51.6512C368.414 48.4542 369.835 44.6588 369.933 41.0856C370.036 37.3185 368.656 34.0083 366.044 31.7649C365.375 31.1896 364.446 30.5546 363.24 30.0893C365.332 24.345 365.091 20.1828 362.59 17.0089C360.76 14.6868 357.987 13.3539 354.982 13.3529C353.906 13.3529 352.863 13.5122 351.832 13.8129C351.879 13.0228 351.878 12.2589 351.822 11.5348C351.447 6.81632 348.82 4.49322 347.289 3.52814C345.724 2.54315 343.913 2.02238 342.049 2.02238C338.382 2.02238 335.28 3.79954 331.864 7.27425C331.839 7.19566 331.816 7.12335 331.795 7.05629C330.69 3.57843 328.134 1.10968 324.784 0.283967C324.021 0.0963993 323.234 8.575e-08 322.445 8.575e-08H322.444H322.44Z" fill="#F9F8FC"/>
<path d="M55.292 177.515C55.3218 177.521 55.3607 177.53 55.4094 177.54C55.3685 177.531 55.3349 177.525 55.292 177.515Z" fill="#F9C724"/>
<path d="M55.4094 177.54C55.9943 177.662 56.3402 177.735 56.5138 177.771C56.2436 177.715 55.6952 177.6 55.4094 177.54Z" fill="#F9C724"/>
<path d="M55.2282 177.501C55.2518 177.507 55.2683 177.51 55.292 177.515C55.2548 177.508 55.2282 177.501 55.2282 177.501Z" fill="#F9C724"/>
<path d="M56.5138 177.771C56.5597 177.781 56.596 177.789 56.6226 177.794C56.5985 177.789 56.5612 177.781 56.5138 177.771Z" fill="#F9C724"/>
<path d="M56.6226 177.794C56.6754 177.804 56.6804 177.806 56.6226 177.794V177.794Z" fill="#F9C724"/>
<path d="M360.581 38.1233C357.738 35.6797 341.677 47.3005 341.677 47.3005C350.246 39.9225 357.849 24.5367 356.005 22.1958C354.161 19.8549 346.97 27.0631 343.486 30.2036C340 33.3451 318.647 52.0651 328.43 43.4768C338.213 34.8896 345.827 12.5146 342.821 10.6222C339.814 8.72763 332.41 19.6893 326.066 28.3321C319.722 36.9748 313.033 42.5296 313.033 42.5296C318.568 36.1313 327.359 9.5523 322.777 8.4227C318.195 7.29311 309.092 30.214 302.164 42.9634C295.235 55.7127 279.446 71.0566 269.135 80.2149C258.824 89.3732 251.744 100.325 247.488 106.879C243.241 113.42 228.579 121.02 225.958 128.796C221.079 143.27 193.583 178.851 190.242 183.158C186.9 187.466 186.127 186.354 171.483 192.409C156.839 198.466 143.648 197.281 139.322 196.634C134.995 195.988 131.802 194.532 119.736 187.968C107.671 181.403 77.2168 164.421 73.8391 161.831C70.4619 159.241 63.5602 153.219 52.4836 150.719C41.4066 148.22 33.6515 156.063 28.4585 159.392C23.265 162.72 12.8033 165.077 10.9572 165.559C9.11115 166.04 5.34336 172.067 12.9522 172.446C20.5607 172.823 39.0718 176.281 39.0718 176.281C39.0718 176.281 41.1896 173.224 44.8223 168.458C48.2844 163.917 49.5139 157.785 54.7729 159.598C60.0327 161.411 60.6475 172.923 55.2282 177.501C55.2282 177.501 74.975 180.969 90.4449 190.985C102.069 198.512 109.961 206.819 117.902 214.264C131.14 226.67 140.796 236.679 140.796 236.679C139.244 238.454 128.564 249.64 106.829 262.773C97.7242 268.275 83.7423 287.254 66.1918 301.235C48.6409 315.217 32.4548 318.073 30.3132 320.685C28.1721 323.296 31.2931 322.991 39.364 322.418C47.4358 321.845 61.6385 316.262 61.6385 316.262C56.8155 320.423 41.5334 325.162 41.6068 327.448C41.68 329.734 46.5366 329.518 52.7022 328.587C58.8682 327.654 69.1213 322.642 69.1213 322.642C63.2598 328.643 59.054 330.02 58.1618 332.047C57.2698 334.076 61.5955 334.236 65.6175 333.651C69.6395 333.068 77.1944 328.746 77.1944 328.746C77.1944 328.746 72.8318 333.523 75.1367 334.682C77.4412 335.839 86.4332 329.502 88.7089 328.684C90.9848 327.867 90.8542 328.973 93.2226 329.487C95.5909 330 96.9404 328.961 99.3316 328.608C101.723 328.256 100.865 328.984 103.808 328.028C106.752 327.072 112.902 326.212 117.504 325.224C122.106 324.235 127.735 323.83 127.735 323.83C128.722 323.185 129.73 322.568 130.693 321.888C132.236 320.797 133.893 319.818 135.332 318.649C136.896 317.379 138.708 316.578 140.286 315.373C141.444 314.49 142.904 314.003 144.068 313.127C145.939 311.721 148.034 310.642 150.048 309.563C152.338 308.337 154.579 307.001 156.85 305.744C159.356 304.358 161.852 302.924 164.214 301.266C166.572 299.609 169.079 298.158 171.564 296.689C172.013 296.425 172.245 295.996 172.736 295.731C174.024 295.035 175.266 294.219 176.446 293.31C178.192 291.969 180.058 290.785 181.848 289.499C183.597 288.243 185.314 286.941 187.047 285.661C185.981 285.565 180.42 284.373 178.499 284.128C174.496 283.617 170.495 283.34 166.502 284.047C164.15 284.463 162.013 285.412 160.606 287.502C159.891 288.563 159.505 288.613 158.675 287.567C157.494 286.079 156.728 284.346 156.037 282.605C155.436 281.087 155.195 279.456 155.323 277.804C155.571 274.594 157.175 272.144 159.634 270.185C160.014 269.883 160.4 269.715 160.271 269.011C159.757 266.251 160.865 264.026 162.818 262.158C164.662 260.393 166.906 259.267 169.252 258.366C175.934 255.8 182.973 255.127 190.027 254.571C196.491 254.059 202.955 253.548 209.229 251.758C212.071 250.947 214.921 250.151 217.604 248.863C219.516 247.945 221.413 247.016 223.13 245.754C225.297 244.161 227.336 242.426 229.122 240.412C229.888 239.549 230.58 238.557 231.369 237.781C234.022 235.17 236.25 232.27 238.303 229.184C239.899 226.785 241.288 224.254 242.744 221.785C244.042 219.582 245.223 217.261 246.419 214.973C247.267 213.351 248.168 211.756 249.012 210.134C249.534 209.129 249.822 207.951 250.519 207.1C252.037 205.246 252.823 202.981 253.872 200.925C255.235 198.255 256.764 195.652 257.989 192.896C259.105 190.387 260.508 188.005 261.775 185.563C262.877 183.437 263.939 181.29 265.071 179.179C266.084 177.293 267.14 175.428 268.239 173.591C268.673 172.866 269.076 172.037 269.651 171.487C271.19 170.009 272.218 168.142 273.6 166.545C274.668 165.312 275.842 164.133 276.843 162.806C278.074 161.174 279.756 159.844 281.101 158.307C282.908 156.24 284.87 154.315 286.79 152.394C289.117 150.065 291.499 147.776 293.838 145.447C295.428 143.863 297.014 142.271 298.549 140.635C301.208 137.801 303.877 134.975 306.442 132.06C308.285 129.965 310.049 127.79 311.774 125.602C312.839 124.249 313.893 122.858 314.891 121.435C316.572 119.032 318.192 116.585 319.927 114.215C321.199 112.477 322.305 110.532 323.276 108.597C324.492 106.181 325.991 103.952 327.38 101.66C328.526 99.7721 329.728 97.886 330.803 95.9757C332.279 93.3519 334.172 90.9376 335.158 88.035C335.621 86.6749 336.225 85.3546 336.702 84.005C337.842 80.7776 338.518 77.4055 339.662 74.1677C340.859 70.781 342.256 56.9429 343.957 56.0763C346.814 54.6198 347.955 60.6764 348.179 61.4728C350.444 69.3139 347.401 84.1758 347.09 85.408C349.062 81.3036 351.924 75.2532 353.686 71.4422C354.695 69.3255 355.176 66.9814 356.319 64.8804C356.943 63.733 357.239 62.4253 358.655 61.9433C361.555 56.529 356.213 50.969 356.213 50.969C359.457 48.4783 363.425 40.5659 360.581 38.1233Z" fill="#20112C"/>
<path d="M43.9108 163.222C42.7303 163.222 41.7729 162.265 41.7729 161.085C41.7729 159.904 42.7303 158.947 43.9108 158.947C45.0916 158.947 46.0482 159.904 46.0482 161.085C46.0482 162.265 45.0916 163.222 43.9108 163.222Z" fill="#F9F8FC"/>
<path d="M274.323 136.624L273.344 137.773L267.179 132.518L267.99 131.566C269.528 129.762 270.926 128.728 272.188 128.463C273.449 128.198 274.597 128.507 275.634 129.389C276.55 130.17 276.965 131.095 276.881 132.166C276.797 133.236 275.945 134.723 274.323 136.624ZM263.943 128.031L263.09 129.033L258.02 124.711L259.027 123.529C259.923 122.478 260.811 121.884 261.691 121.746C262.571 121.609 263.386 121.859 264.14 122.501C264.946 123.189 265.353 124.003 265.361 124.945C265.368 125.886 264.895 126.915 263.943 128.031ZM282.433 129.23C281.917 127.582 280.982 126.184 279.63 125.031C278.223 123.832 276.717 123.131 275.111 122.929C273.504 122.727 271.735 123.064 269.802 123.939C269.892 122.51 269.728 121.284 269.311 120.259C268.894 119.236 268.228 118.334 267.312 117.552C265.904 116.354 264.322 115.739 262.56 115.708C260.798 115.677 259.112 116.219 257.503 117.334C256.353 118.108 254.844 119.592 252.975 121.787L249.75 125.568L273.807 146.074L279.558 139.328C281.214 137.385 282.235 135.628 282.625 134.056C283.015 132.484 282.95 130.876 282.433 129.23Z" fill="#F9F8FC"/>
<path d="M220.898 203.845C217.788 202.586 215.022 202.479 212.603 203.525C210.426 204.469 208.638 206.673 207.235 210.139L206.47 212.032L224.955 219.511L226.003 216.921C227.035 214.372 227.491 212.405 227.37 211.018C227.251 209.633 226.647 208.296 225.561 207.006C224.472 205.716 222.919 204.662 220.898 203.845ZM233.387 212.251C233.244 213.983 232.403 216.747 230.867 220.541L228.153 227.25L198.85 215.393L201.524 208.785C203.248 204.526 205.055 201.575 206.949 199.933C208.841 198.29 211.248 197.279 214.167 196.901C217.088 196.523 220.134 196.975 223.308 198.26C225.565 199.173 227.489 200.388 229.078 201.903C230.668 203.418 231.819 205.09 232.533 206.915C233.247 208.739 233.532 210.519 233.387 212.251Z" fill="#F9F8FC"/>
<path d="M238.024 169.879C235.392 168.422 232.675 168.074 229.872 168.834C227.069 169.593 224.966 171.241 223.562 173.775C222.146 176.334 221.845 178.98 222.659 181.708C223.473 184.437 225.254 186.561 227.998 188.081C231.057 189.773 234.083 190.015 237.079 188.805C239.414 187.868 241.193 186.296 242.416 184.088C243.798 181.591 244.073 178.964 243.24 176.208C242.407 173.453 240.669 171.343 238.024 169.879ZM247.511 186.908C245.212 191.06 241.869 193.714 237.478 194.873C233.087 196.03 228.918 195.516 224.97 193.331C222.325 191.867 220.247 189.882 218.737 187.373C217.226 184.867 216.441 182.134 216.385 179.178C216.326 176.221 217.011 173.45 218.443 170.866C220.608 166.954 223.887 164.373 228.278 163.126C232.669 161.877 236.903 162.381 240.975 164.636C245.011 166.87 247.658 170.15 248.915 174.475C250.173 178.801 249.706 182.945 247.511 186.908Z" fill="#F9F8FC"/>
<path d="M266.314 155.965C266.001 157.358 265.339 158.768 264.328 160.194C263.002 162.063 261.417 163.386 259.576 164.161C257.736 164.936 255.958 165.164 254.245 164.843C252.531 164.524 250.137 163.274 247.064 161.093L231.693 150.188L235.187 145.263L251.859 157.091C253.294 158.111 254.4 158.706 255.173 158.877C255.948 159.048 256.718 158.971 257.484 158.644C258.251 158.319 258.923 157.747 259.504 156.929C260.117 156.064 260.447 155.179 260.493 154.271C260.54 153.366 260.342 152.575 259.899 151.9C259.456 151.226 258.37 150.276 256.643 149.05L240.583 137.658L244.077 132.732L259.449 143.637C262.043 145.477 263.739 146.9 264.536 147.905C265.334 148.91 265.908 150.155 266.258 151.642C266.608 153.13 266.627 154.57 266.314 155.965Z" fill="#F9F8FC"/>
<path d="M290.289 127.284L267.762 105.108L271.983 100.819L290.421 118.97L296.572 112.723L300.661 116.748L290.289 127.284Z" fill="#F9F8FC"/>
<path d="M303.654 113.947L282.615 90.3529L295.494 78.8684L299.412 83.2631L290.992 90.7721L294.797 95.0379L303.217 87.53L307.064 91.844L298.644 99.352L304.179 105.56L312.599 98.0505L316.532 102.461L303.654 113.947Z" fill="#F9F8FC"/>
<path d="M389.911 134.895C388.935 134.732 387.933 134.863 386.926 134.998C385.372 135.208 383.928 135.739 382.432 136.108C380.485 136.588 378.513 136.97 376.541 137.335C375.247 137.575 373.933 137.709 372.628 137.89C375.312 136.604 377.794 135.062 380.262 133.484C382.489 132.059 384.522 130.411 386.484 128.641C388.17 127.118 389.854 125.674 390.608 123.412C391.121 121.876 390.381 120.548 388.836 120.533C386.148 120.505 383.622 121.154 381.172 122.253C380.233 122.675 379.158 122.796 377.997 123.092C380.151 121.669 387.729 112.696 389.159 109.715C389.637 108.728 390.247 107.454 389.545 106.212C388.635 104.605 386.587 104.109 384.868 105.186C383.084 106.306 378.808 108.364 378.782 108.295C378.692 108.048 382.671 102.905 383.594 101.767C385.447 99.485 386.828 96.9943 387.894 94.2573C388.436 92.8699 390.255 87.7815 387.728 87.3309C385.901 87.0155 384.291 87.7459 383.07 88.8367C380.602 91.0424 377.956 93.0271 375.432 95.1574C374.137 96.2503 371.178 98.6803 371.001 98.5084C370.873 98.3827 379.192 83.6005 380.46 74.3206C380.584 73.3744 380.369 72.3831 379.609 71.8655C378.967 71.4285 377.942 71.6318 377.365 72.1065C375.73 73.4467 374.271 74.9986 373.001 76.6919C372.437 77.4443 371.722 78.0342 371.157 78.7866C369.838 80.5418 368.397 82.2068 366.967 83.8729C365.578 85.4898 364.039 86.9872 362.757 88.6826C361.768 89.9904 359.345 91.7088 359.446 91.4333C360.531 88.4626 361.187 85.3693 361.968 82.3169C362.611 79.8114 363.047 77.2295 363.11 74.6392C363.179 71.8938 363.384 69.1232 362.876 66.3978C362.383 63.7571 361.675 61.6405 358.655 61.9433C357.239 62.4253 356.943 63.733 356.319 64.8804C355.176 66.9814 354.695 69.3255 353.686 71.4422C351.924 75.2532 349.062 81.3036 347.09 85.408C347.401 84.1758 350.444 69.3139 348.179 61.4728C347.955 60.6764 346.814 54.6198 343.957 56.0763C342.256 56.9429 340.859 70.781 339.662 74.1677C338.518 77.4055 337.842 80.7776 336.702 84.005C336.225 85.3546 335.621 86.6749 335.158 88.035C334.172 90.9376 332.279 93.3519 330.803 95.9757C329.728 97.886 328.526 99.7721 327.38 101.66C325.991 103.952 324.492 106.181 323.276 108.597C322.305 110.532 321.199 112.477 319.927 114.215C318.192 116.585 316.572 119.032 314.891 121.435C313.893 122.858 312.839 124.249 311.774 125.602C310.049 127.79 308.285 129.965 306.442 132.06C303.877 134.975 301.208 137.801 298.549 140.635C297.014 142.271 295.428 143.863 293.838 145.447C291.499 147.776 289.117 150.065 286.79 152.394C284.87 154.315 282.908 156.24 281.101 158.307C279.756 159.844 278.074 161.174 276.843 162.806C275.842 164.133 274.668 165.312 273.6 166.545C272.218 168.142 271.19 170.009 269.651 171.487C269.076 172.037 268.673 172.866 268.239 173.591C267.14 175.428 266.084 177.293 265.071 179.179C263.939 181.29 262.877 183.437 261.775 185.563C260.508 188.005 259.105 190.387 257.989 192.896C256.764 195.652 255.235 198.255 253.872 200.925C252.823 202.981 252.037 205.246 250.519 207.1C249.822 207.951 249.534 209.129 249.012 210.134C248.168 211.756 247.267 213.351 246.419 214.973C245.223 217.261 244.042 219.582 242.744 221.785C241.288 224.254 239.899 226.785 238.303 229.184C236.25 232.27 234.022 235.17 231.369 237.781C230.58 238.557 229.888 239.549 229.122 240.412C227.336 242.426 225.297 244.161 223.13 245.754C221.413 247.016 219.516 247.945 217.604 248.863C214.921 250.151 212.071 250.947 209.229 251.758C202.955 253.548 196.491 254.059 190.027 254.571C182.973 255.127 175.934 255.8 169.252 258.366C166.906 259.267 164.662 260.393 162.818 262.158C160.865 264.026 159.757 266.251 160.271 269.011C160.4 269.715 160.014 269.883 159.634 270.185C157.175 272.144 155.571 274.594 155.323 277.804C155.195 279.456 155.436 281.087 156.037 282.605C156.728 284.346 157.494 286.079 158.675 287.567C159.505 288.613 159.891 288.563 160.606 287.502C162.013 285.412 164.15 284.463 166.502 284.047C170.495 283.34 174.496 283.617 178.499 284.128C180.42 284.373 185.981 285.565 187.047 285.661C185.314 286.941 183.597 288.243 181.848 289.499C180.058 290.785 178.192 291.969 176.446 293.31C175.266 294.219 174.024 295.035 172.736 295.731C172.245 295.996 172.013 296.425 171.564 296.689C169.079 298.158 166.572 299.609 164.214 301.266C161.852 302.924 159.356 304.358 156.85 305.744C154.579 307.001 152.338 308.337 150.048 309.563C148.034 310.642 145.939 311.721 144.068 313.127C142.904 314.003 141.444 314.49 140.286 315.373C138.708 316.578 136.896 317.379 135.332 318.649C133.893 319.818 132.236 320.797 130.693 321.888C129.73 322.568 128.722 323.185 127.735 323.83C126.223 325.352 124.36 326.41 122.665 327.687C119.845 329.811 117.107 332.039 114.279 334.156C111.765 336.036 109.227 337.891 106.759 339.836C106.408 340.113 93.8099 349.619 80.5352 356.483C77.7273 357.948 58.4875 365.344 55.2003 366.448C53.4586 367.034 40.8839 370.299 38.9417 371.632C36.2217 373.138 38.0903 374.028 39.276 374.216C40.4623 374.404 53.586 374.29 62.1797 373.516C70.7733 372.742 80.5025 370.693 81.8282 370.285C81.8282 370.285 74.7004 374.394 66.4848 377.179C58.2685 379.963 52.2901 380.897 51.7481 383.087C51.207 385.277 70.0091 387.438 91.2283 378.691C91.2283 378.691 84.9546 383.495 81.2654 385.697C77.5754 387.9 71.1127 390.329 71.4827 391.723C71.8523 393.117 84.7532 395.571 98.5139 387.984C98.5139 387.984 91.3982 393.944 93.4726 396.274C95.5475 398.605 113.055 389.645 115.074 389.389C117.091 389.132 112.745 393.541 114.996 393.349C116.775 393.197 127.263 388.801 129.052 388.69C130.545 388.596 128.385 392.529 129.92 392.604C137.129 392.961 147.528 387.798 150.366 386.31C152.281 385.306 155.696 382.277 155.873 382.449C156.001 382.573 155.745 384.706 156.579 385.305C157.43 385.917 158.305 385.457 159.012 385.024C162.007 383.19 163.992 380.32 166.234 377.73C167.356 376.435 168.017 374.78 169.239 373.547C170.095 374.206 170.949 374.867 171.808 375.522C172.243 375.855 172.771 375.827 173.25 375.75C174.695 375.519 175.838 374.853 176.596 373.51C177.004 372.79 177.32 372.043 177.645 371.294C177.862 370.796 178.067 370.606 178.739 370.684C180.037 370.838 181.512 371.048 182.61 370.253C184.189 369.111 185.504 367.669 186.121 365.692C186.711 363.797 187.879 363.218 189.809 363.66C191.409 364.027 193.054 364.102 194.651 363.907C196.854 363.636 198.132 361.935 199.132 360.193C200.015 358.654 200.342 358.344 202.027 358.912C202.298 359.004 202.576 359.087 202.839 359.201C204.872 360.088 206.688 359.613 208.47 358.442C210.196 357.308 211.328 355.67 212.481 354.04C212.854 353.513 213.234 353.085 213.959 353.127C216.184 353.259 219.435 350.635 219.873 348.292C220.284 346.089 220.797 345.841 223.062 345.841C223.27 345.841 223.48 345.848 223.689 345.838C227.095 345.695 229.957 344.064 231.136 340.371C231.287 339.896 231.583 339.589 232.112 339.554C234.372 339.405 236.296 338.569 238.079 337.113C239.59 335.879 241.054 334.486 241.476 332.723C242.069 330.245 244.017 329.431 245.715 328.282C247.345 327.183 248.427 325.738 249.243 324.016C249.613 323.236 249.575 322.123 250.416 321.746C251.205 321.393 251.985 320.987 252.809 320.697C254.837 319.983 256.516 318.737 258.097 317.304C259.193 316.313 260.306 315.145 261.83 314.958C265.723 314.476 268.837 312.203 272.059 310.371C274.125 309.194 275.837 308.822 277.867 309.755C280.206 310.828 282.433 312.104 284.559 313.573C285.619 314.308 287.037 314.581 287.983 315.413C289.533 316.775 291.373 317.691 293.044 318.818C294.772 319.985 296.402 321.256 297.953 322.598C299.637 324.052 301.278 325.602 302.958 327.045C304.23 328.138 305.462 329.328 306.708 330.44C308.431 331.977 310.022 333.724 311.609 335.435C313.493 337.466 319.266 345.097 320.564 344.943C324.223 344.508 326.844 336.714 327.239 335.365C327.369 334.924 327.38 334.243 328.055 334.281C331.211 334.461 336.282 338.576 338.423 337.886C340.397 337.251 341.033 331.789 342.575 327.804C344.45 328.387 348.789 330.482 350.734 329.325C351.787 327.288 351.986 325.152 351.057 322.957C352.205 322.957 353.383 323.028 354.549 322.942C357.015 322.764 358.637 321.394 357.886 318.464C357.651 317.551 357.462 316.628 357.223 315.571C359.711 316.39 362.138 316.528 364.588 316.415C365.981 316.353 367.151 316.013 367.684 314.46C368.123 313.181 367.954 308.791 362.984 304.973C366.037 305.219 370.041 304.307 371.36 303.314C372.173 302.702 372.962 301.973 373.247 300.779C373.639 299.129 373.289 297.704 372.598 296.259C371.531 294.031 369.861 292.375 367.562 291.579C365.978 291.031 364.61 290.063 362.655 289.661C366.496 287.584 367.277 284.227 366.552 280.792C365.696 276.739 361.938 275.798 358.476 274.809C358.791 274.559 362.751 271.586 363.843 269.65C364.767 268.013 368.65 262.097 360.123 263.357C358.239 263.375 356.355 263.361 354.432 263.361C354.774 261.774 355.351 260.313 355.523 258.752C355.72 256.957 355.647 255.185 355.034 253.487C354.777 252.778 354.323 252.31 353.326 252.752C351.597 253.52 349.753 254.001 348.022 254.804C345.371 256.037 342.473 256.567 339.725 257.555C337.073 258.51 334.245 258.907 331.516 259.623C329.327 260.198 327.13 260.72 324.903 261.073C322.583 261.442 320.226 261.565 317.897 261.882C314.522 262.342 311.139 262.414 307.723 262.256C310.384 261.678 312.667 260.344 314.873 258.84C315.088 258.692 315.373 258.553 315.335 258.314C315.061 256.565 316.266 256.88 317.298 256.807C318.831 256.696 320.381 256.147 321.047 254.799C321.549 253.783 321.811 253.748 322.799 253.959C325.305 254.495 326.786 253.453 326.41 250.87C326.336 250.365 326.159 249.874 326.023 249.353C327.166 249.211 328.236 248.824 328.635 247.753C329.065 246.598 328.27 245.602 327.637 244.675C328.02 244.454 328.307 244.483 328.593 244.556C329.778 244.863 330.938 244.747 332.142 244.573C333.142 244.428 333.129 243.916 332.862 243.314C332.253 241.94 331.737 240.516 330.858 239.221C331.469 239.221 332.055 239.222 332.641 239.221C335.469 239.217 337.225 237.529 337.22 234.715C337.218 233.895 337.435 233.591 338.267 233.674C338.923 233.74 339.581 233.503 340.216 233.384C341.478 233.144 342.576 232.076 342.89 231.114C343.338 229.745 343.285 228.075 342.295 226.692C342 226.282 341.334 225.458 341.334 225.458C343.39 225.227 345.461 225.527 347.52 225.181C348.792 224.968 349.501 224.21 349.975 223.247C350.497 222.185 349.962 220.167 349.126 219.584C348.654 219.254 348.255 218.914 347.975 218.349C348.595 218.349 349.175 218.356 349.757 218.348C350.999 218.334 352.244 218.438 353.471 218.1C354.949 217.692 355.933 216.011 355.183 214.861C354.656 214.053 354.32 213.098 353.302 212.562C352.673 212.23 352.01 211.741 351.383 211.227C352.715 210.656 354.093 210.775 355.4 210.403C356.532 210.083 357.686 209.899 358.73 209.301C359.794 208.693 359.947 206.593 358.859 206.083C357.786 205.58 357.159 204.458 355.782 204.251C357.381 203.622 358.746 203.001 359.737 201.774C360.102 201.324 360.587 201.118 361.178 200.926C362.648 200.451 364.218 200.243 365.481 199.117C366.478 198.228 367.017 197.194 366.443 195.928C366.25 195.503 366.332 195.533 366.68 195.441C368.103 195.065 368.934 194.068 369.152 192.667C369.363 191.318 369.18 190.022 367.771 189.291C368.909 188.861 370.009 188.772 370.97 187.862C372.801 186.125 373.598 184.46 371.826 182.361C370.87 181.231 370.933 180.409 371.157 179.22C371.381 178.032 371.679 176.953 372.616 176.121C373.355 175.466 373.453 174.462 373.081 173.766C372.757 173.164 373.079 173.401 373.314 173.301C374.761 172.684 376.312 172.274 377.09 170.634C377.576 169.609 377.842 168.667 376.977 167.379C376.111 166.091 370.561 164.775 369.18 164.393C370.184 163.897 371.172 163.639 372.133 163.342C375.004 162.454 377.908 161.748 380.585 160.278C382.445 159.256 384.366 158.436 385.889 156.835C386.719 155.963 386.97 155.064 386.725 154.097C386.495 153.186 385.725 151.898 382.937 151.954C379.004 151.975 375.072 151.964 371.139 151.964C373.787 151.217 376.302 150.229 378.729 149.041C380.355 148.244 381.894 147.293 383.427 146.302C385.941 144.677 388.065 142.71 390.039 140.524C390.833 139.645 391.177 138.532 391.514 137.441C391.794 136.531 391.561 135.172 389.911 134.895Z" fill="#F9C724"/>
<path d="M185.956 265.122C183.135 265.89 180.311 266.643 177.485 267.389C176.824 267.563 176.268 267.768 176.048 268.549C175.826 269.337 175.218 269.889 174.547 270.343C174.286 270.519 174.021 270.86 173.689 270.472C173.388 270.119 173.481 269.803 173.819 269.499C174.649 268.749 174.82 267.8 174.585 266.749C174.492 266.332 174.408 265.908 173.789 266.065C173.226 266.208 173.381 266.532 173.48 266.921C173.678 267.705 173.601 268.43 172.804 268.886C171.965 269.364 171.198 269.277 170.544 268.551C170.322 268.305 170.156 268.129 169.854 268.453C169.602 268.723 169.635 268.938 169.85 269.208C170.293 269.77 170.9 270.031 171.568 270.158C171.932 270.226 172.237 270.295 172.189 270.753C172.143 271.203 171.754 271.237 171.43 271.237C171.264 271.242 171.074 271.197 170.933 271.13C169.301 270.356 167.606 269.805 165.82 269.507C165.485 269.451 165.039 269.214 165.146 268.737C165.274 268.161 165.764 268.446 166.084 268.488C167.078 268.616 167.864 268.188 168.637 267.661C170.121 266.648 171.583 265.597 173.111 264.654C174.751 263.641 176.538 263.104 178.497 263.48C179.092 263.593 179.526 263.774 178.816 264.39C178.412 264.739 178.012 265.118 177.856 265.821C180.578 265.308 183.157 264.811 185.74 264.344C186.139 264.272 186.75 263.825 186.906 264.491C187.006 264.915 186.34 265.017 185.956 265.122Z" fill="#F9F8FC"/>
<path d="M279.298 257.633L255.58 236.734L266.988 223.788L271.406 227.68L263.947 236.145L268.236 239.924L275.695 231.459L280.032 235.281L272.574 243.745L278.814 249.243L286.272 240.779L290.705 244.685L279.298 257.633Z" fill="#F9F8FC"/>
<path d="M308.813 220.109C308.447 222.708 307.324 225.218 305.445 227.641C303.434 230.233 301.077 232.108 298.376 233.267C295.673 234.424 292.821 234.787 289.821 234.354C286.82 233.922 284.114 232.77 281.704 230.9C278.398 228.335 276.37 225.013 275.62 220.931C274.722 216.083 275.883 211.58 279.106 207.427C280.792 205.253 282.77 203.534 285.04 202.267C286.958 201.197 289.336 200.54 292.174 200.294L292.887 206.21C289.002 206.59 285.966 208.19 283.778 211.01C281.871 213.469 281.089 216.16 281.431 219.085C281.773 222.009 283.11 224.375 285.442 226.185C287.854 228.055 290.565 228.779 293.576 228.356C296.588 227.933 299.073 226.459 301.034 223.931C302.308 222.288 303.038 220.635 303.222 218.972C303.406 217.309 303.03 215.561 302.095 213.728L296.484 220.962L292.018 217.497L301.765 204.932L302.844 205.715C305.028 207.41 306.661 209.584 307.741 212.234C308.823 214.885 309.179 217.51 308.813 220.109Z" fill="#F9F8FC"/>
<path d="M332.859 186.257L305.298 170.777L313.748 155.732L318.881 158.616L313.357 168.452L318.342 171.252L323.866 161.415L328.906 164.246L323.381 174.082L330.632 178.154L336.156 168.318L341.309 171.212L332.859 186.257Z" fill="#F9F8FC"/>
<path d="M344.535 164.807L315.826 151.574L323.05 135.903L328.397 138.368L323.674 148.614L328.865 151.006L333.588 140.76L338.838 143.181L334.115 153.426L341.668 156.908L346.391 146.662L351.757 149.136L344.535 164.807Z" fill="#F9F8FC"/>
<path d="M259.465 256.195C257.062 253.852 254.542 252.708 251.907 252.76C249.536 252.81 247.045 254.174 244.436 256.852L243.012 258.314L257.294 272.231L259.243 270.231C261.163 268.261 262.329 266.613 262.742 265.284C263.155 263.956 263.102 262.489 262.585 260.884C262.065 259.28 261.026 257.716 259.465 256.195ZM267.845 268.701C267.056 270.251 265.233 272.49 262.375 275.422L257.326 280.604L234.687 258.543L239.662 253.438C242.868 250.147 245.659 248.099 248.033 247.294C250.407 246.492 253.017 246.465 255.863 247.22C258.708 247.975 261.358 249.547 263.809 251.936C265.554 253.636 266.874 255.489 267.772 257.492C268.67 259.496 269.104 261.478 269.074 263.438C269.045 265.398 268.635 267.152 267.845 268.701Z" fill="#F9F8FC"/>
<path d="M306.876 185.37C306.299 184.99 305.701 184.809 305.078 184.826C304.456 184.843 303.886 185.041 303.37 185.419C302.853 185.796 302.155 186.654 301.275 187.989L300.367 189.366L305.785 192.939L306.822 191.365C307.875 189.767 308.391 188.528 308.369 187.649C308.345 186.771 307.848 186.01 306.876 185.37ZM326.075 197.144L310.986 195.708L310.683 196.168L321.859 203.538L318.548 208.561L292.157 191.16L295.666 185.837C297.589 182.923 299.217 181.019 300.552 180.125C301.888 179.232 303.408 178.807 305.112 178.851C306.816 178.895 308.494 179.461 310.144 180.549C311.879 181.692 313.055 183.065 313.672 184.665C314.29 186.265 314.347 188.099 313.842 190.167L329.696 191.652L326.075 197.144Z" fill="#F9F8FC"/>
</svg>
