<svg width="165" height="165" viewBox="0 0 165 165" fill="none" xmlns="http://www.w3.org/2000/svg">
<rect x="1" y="1" width="163" height="163" rx="81.5" fill="#F9C724"/>
<rect x="1" y="1" width="163" height="163" rx="81.5" stroke="#20112C" stroke-width="2"/>
<path d="M108.967 96.426C108.967 96.426 93.026 111.898 74.7406 104.865C56.4552 97.8325 55.9864 76.2651 55.9864 76.2651" stroke="#20112C" stroke-width="4"/>
<path d="M105.685 87.0488C105.685 87.0488 106.41 91.9868 108.498 94.0817C110.707 96.2974 116 96.8948 116 96.8948" stroke="#20112C" stroke-width="4"/>
<path d="M49 72.6379C49 72.6379 53.5087 75.2759 56.5254 74.9974C59.7163 74.7029 63.4881 70.9376 63.4881 70.9376" stroke="#20112C" stroke-width="4"/>
<path d="M73.9766 59.8551L78.1095 65.0125L82.2424 70.1699H69.1144" stroke="#20112C" stroke-width="4"/>
<ellipse cx="4.21971" cy="14.0657" rx="4.21971" ry="14.0657" transform="matrix(-0.963991 -0.265933 -0.265933 0.963991 104.585 60.546)" fill="#20112C"/>
</svg>
