<svg width="187" height="180" viewBox="0 0 187 180" fill="none" xmlns="http://www.w3.org/2000/svg">
<rect x="23" y="16" width="163" height="163" rx="81.5" fill="#20112C"/>
<rect x="23" y="16" width="163" height="163" rx="81.5" stroke="#20112C" stroke-width="2"/>
<path d="M130.967 111.426C130.967 111.426 115.026 126.898 96.7406 119.865C78.4552 112.833 77.9864 91.2651 77.9864 91.2651" stroke="#20112C" stroke-width="4"/>
<path d="M127.685 102.049C127.685 102.049 128.41 106.987 130.498 109.082C132.707 111.297 138 111.895 138 111.895" stroke="#20112C" stroke-width="4"/>
<path d="M71 87.6379C71 87.6379 75.5087 90.2759 78.5254 89.9974C81.7163 89.7029 85.4881 85.9376 85.4881 85.9376" stroke="#20112C" stroke-width="4"/>
<path d="M95.9766 74.8551L100.109 80.0125L104.242 85.1699H91.1144" stroke="#20112C" stroke-width="4"/>
<ellipse cx="4.21971" cy="14.0657" rx="4.21971" ry="14.0657" transform="matrix(-0.963991 -0.265933 -0.265933 0.963991 126.585 75.546)" fill="#20112C"/>
<rect x="1" y="1" width="163" height="163" rx="81.5" fill="#F9C724"/>
<rect x="1" y="1" width="163" height="163" rx="81.5" stroke="#20112C" stroke-width="2"/>
<path d="M108.967 96.426C108.967 96.426 93.026 111.898 74.7406 104.865C56.4552 97.8325 55.9864 76.2651 55.9864 76.2651" stroke="#20112C" stroke-width="4"/>
<path d="M105.685 87.0488C105.685 87.0488 106.41 91.9868 108.498 94.0817C110.707 96.2974 116 96.8948 116 96.8948" stroke="#20112C" stroke-width="4"/>
<path d="M49 72.6379C49 72.6379 53.5087 75.2759 56.5254 74.9974C59.7163 74.7029 63.4881 70.9376 63.4881 70.9376" stroke="#20112C" stroke-width="4"/>
<path d="M73.9766 59.8551L78.1095 65.0125L82.2424 70.1699H69.1144" stroke="#20112C" stroke-width="4"/>
<ellipse cx="4.21971" cy="14.0657" rx="4.21971" ry="14.0657" transform="matrix(-0.963991 -0.265933 -0.265933 0.963991 104.585 60.546)" fill="#20112C"/>
</svg>

